<svg width="24" height="24" viewBox="0 0 24 24" fill="none" xmlns="http://www.w3.org/2000/svg">
<path d="M15.1992 22.353H9.19922C3.76922 22.353 1.44922 20.033 1.44922 14.603V8.60303C1.44922 3.17303 3.76922 0.853027 9.19922 0.853027H15.1992C20.6292 0.853027 22.9492 3.17303 22.9492 8.60303V14.603C22.9492 20.033 20.6292 22.353 15.1992 22.353ZM9.19922 2.35303C4.58922 2.35303 2.94922 3.99303 2.94922 8.60303V14.603C2.94922 19.213 4.58922 20.853 9.19922 20.853H15.1992C19.8092 20.853 21.4492 19.213 21.4492 14.603V8.60303C21.4492 3.99303 19.8092 2.35303 15.1992 2.35303H9.19922Z" fill="#FD2F70"/>
<path d="M12.1992 15.853C9.85922 15.853 7.94922 13.943 7.94922 11.603C7.94922 9.26303 9.85922 7.35303 12.1992 7.35303C14.5392 7.35303 16.4492 9.26303 16.4492 11.603C16.4492 13.943 14.5392 15.853 12.1992 15.853ZM12.1992 8.85303C10.6792 8.85303 9.44922 10.083 9.44922 11.603C9.44922 13.123 10.6792 14.353 12.1992 14.353C13.7192 14.353 14.9492 13.123 14.9492 11.603C14.9492 10.083 13.7192 8.85303 12.1992 8.85303Z" fill="#FD2F70"/>
<path d="M17.1992 7.10293C17.0692 7.10293 16.9392 7.07293 16.8192 7.02293C16.6992 6.97293 16.5892 6.90293 16.4892 6.81293C16.3992 6.71293 16.3192 6.60293 16.2692 6.48293C16.2192 6.36293 16.1992 6.23293 16.1992 6.10293C16.1992 5.97293 16.2192 5.84293 16.2692 5.72293C16.3292 5.59293 16.3992 5.49293 16.4892 5.39293C16.5392 5.35293 16.5892 5.30293 16.6392 5.27293C16.6992 5.23293 16.7592 5.20293 16.8192 5.18293C16.8792 5.15293 16.9392 5.13293 17.0092 5.12293C17.3292 5.05293 17.6692 5.16293 17.9092 5.39293C17.9992 5.49293 18.0692 5.59293 18.1192 5.72293C18.1692 5.84293 18.1992 5.97293 18.1992 6.10293C18.1992 6.23293 18.1692 6.36293 18.1192 6.48293C18.0692 6.60293 17.9992 6.71293 17.9092 6.81293C17.8092 6.90293 17.6992 6.97293 17.5792 7.02293C17.4592 7.07293 17.3292 7.10293 17.1992 7.10293Z" fill="#FD2F70"/>
</svg>
