<svg width="24" height="24" viewBox="0 0 24 24" fill="none" xmlns="http://www.w3.org/2000/svg">
<path d="M22.1477 6.33499C21.9034 5.98162 21.4196 5.89372 21.0673 6.13903L18.6567 7.81795C18.4378 7.97037 18.3121 8.22482 18.3236 8.49194C18.3306 8.65216 18.334 8.8024 18.334 8.95118C18.334 13.8971 14.5846 19.0128 8.31011 19.0128C7.03102 19.0128 5.7744 18.7685 4.59997 18.2971L8.32004 17.2527C8.73295 17.1367 8.97402 16.7068 8.85851 16.2923C8.74299 15.878 8.31507 15.6359 7.90176 15.7518L2.28205 17.3297C1.98746 17.4124 1.76875 17.661 1.72341 17.9647C1.67817 18.2683 1.8147 18.5704 2.07224 18.7361C3.93792 19.9367 6.09498 20.5714 8.31011 20.5714C12.6635 20.5714 15.39 18.5069 16.9109 16.7751C18.8021 14.6215 19.8866 11.7699 19.8866 8.95128C19.8866 8.92043 19.8865 8.88957 19.8863 8.85861L21.9525 7.41959C22.3047 7.17418 22.3921 6.68866 22.1477 6.33499Z" fill="#FD2F70"/>
<path d="M3.01172 5.81647L11.0914 10.1932C11.206 10.2554 11.3302 10.2859 11.4538 10.2859C11.6297 10.2859 11.8046 10.2241 11.9486 10.1033C12.1937 9.89793 12.3053 9.55946 12.2348 9.23516C12.1812 8.98911 12.1542 8.733 12.1542 8.47416C12.1542 6.63699 13.5531 5.14228 15.2726 5.14228C16.1322 5.14228 16.962 5.52575 17.5491 6.19446C17.7684 6.4444 18.1061 6.53041 18.4076 6.41344L20.9012 5.44522C21.3174 5.28359 21.5322 4.79217 21.381 4.34747C21.2298 3.90265 20.7695 3.67339 20.3537 3.8348L18.3245 4.62265C17.4769 3.85822 16.3915 3.42871 15.2726 3.42871C12.8215 3.42871 10.8007 5.43471 10.5722 7.99085L3.73669 4.28818C3.34171 4.07411 2.85929 4.24295 2.65907 4.66491C2.45886 5.087 2.61674 5.60252 3.01172 5.81647Z" fill="#FD2F70"/>
<path d="M3.02016 10.718L4.37112 11.1192C4.42546 11.1354 4.48004 11.143 4.53381 11.143C4.80135 11.143 5.04685 10.9521 5.12152 10.6612C5.21124 10.3118 5.02057 9.9503 4.69585 9.85378L3.34489 9.45254C3.02033 9.3561 2.68413 9.56105 2.59441 9.91049C2.50477 10.26 2.69536 10.6214 3.02016 10.718Z" fill="#FD2F70"/>
<path d="M4.21155 12.9264C3.76193 12.9436 3.41128 13.3256 3.42833 13.7796C3.44495 14.2231 3.80615 14.5712 4.24197 14.5712C4.2524 14.5712 4.26283 14.571 4.27326 14.5707L6.07239 14.5018C6.52201 14.4846 6.87266 14.1026 6.85572 13.6484C6.83866 13.1944 6.45943 12.8407 6.01079 12.8575L4.21155 12.9264Z" fill="#FD2F70"/>
</svg>
