<svg width="24" height="24" viewBox="0 0 24 24" fill="none" xmlns="http://www.w3.org/2000/svg">
<path d="M11.7616 0C5.27612 0 0 5.27636 0 11.7618C0 14.3 1.03023 16.5791 1.47326 17.4412C1.67953 17.8427 2.17236 18.0007 2.57366 17.7945C2.97508 17.5883 3.13329 17.0955 2.92702 16.6941C2.53847 15.9378 1.63453 13.9432 1.63453 11.7616C1.63442 6.17758 6.17744 1.63442 11.7616 1.63442C17.3463 1.63442 21.8896 6.17758 21.8896 11.7618C21.8896 17.3461 17.3463 21.8893 11.7616 21.8893C9.57758 21.8893 7.84215 21.1331 7.19732 20.8079C7.00609 20.7113 6.78458 20.6939 6.5806 20.7592L1.43306 22.4041C1.00321 22.5415 0.765997 23.0014 0.903397 23.4313C1.01432 23.7786 1.33576 24 1.6816 24C1.76408 24 1.84787 23.9875 1.93057 23.961L6.76747 22.4153C7.77939 22.885 9.56047 23.5237 11.7616 23.5237C18.2474 23.5237 23.5241 18.2474 23.5241 11.7618C23.5241 5.27636 18.2474 0 11.7616 0Z" fill="#FD2F70"/>
<path d="M9.44313 9.75617C9.08519 10.0311 9.01796 10.5441 9.29276 10.9021C9.56767 11.2601 10.0806 11.3274 10.4387 11.0525C10.6892 10.8601 11.3546 10.349 11.2572 9.43495C11.1972 8.89156 10.667 8.14593 10.2328 7.61627C9.59742 6.84112 9.05959 6.38206 8.63725 6.25283C8.24151 6.13014 7.83595 6.14954 7.43149 6.31058C6.59946 6.64313 6.01227 7.19404 5.73333 7.90382C5.46169 8.59507 5.51105 9.36859 5.8764 10.1416C6.72924 11.9418 7.86908 13.4966 9.26432 14.763C9.26977 14.7681 9.27533 14.7731 9.28089 14.7781C10.696 16.029 12.3702 16.9927 14.2577 17.643C14.6158 17.766 14.9673 17.8274 15.3049 17.8274C15.729 17.8274 16.1312 17.7306 16.4969 17.5378C17.1715 17.1821 17.6542 16.5378 17.8932 15.6729C18.0082 15.2536 17.9825 14.8487 17.8181 14.4717C17.6417 14.0636 17.1262 13.58 16.2857 13.0342C15.7116 12.6613 14.9126 12.217 14.3636 12.217C14.3633 12.217 14.3628 12.217 14.3624 12.217C13.4465 12.2207 13.0116 12.9384 12.8479 13.2087C12.6141 13.5948 12.7375 14.0973 13.1235 14.3311C13.5093 14.565 14.012 14.4417 14.2459 14.0556C14.3105 13.9488 14.3515 13.8921 14.3772 13.8625C14.8388 13.9965 16.0734 14.8041 16.3264 15.144C16.3306 15.1621 16.3311 15.1894 16.3175 15.2392C16.237 15.5307 16.0704 15.9152 15.7347 16.0922C15.421 16.2574 15.0469 16.1862 14.7892 16.0977C13.1098 15.5191 11.6235 14.6658 10.3716 13.5612C10.3713 13.5609 10.3708 13.5606 10.3705 13.5601C9.13085 12.4369 8.11577 11.0515 7.35358 9.44268C7.23689 9.19556 7.12476 8.83174 7.25443 8.50191C7.39324 8.14866 7.75707 7.94076 8.0371 7.82885C8.08515 7.80968 8.11228 7.80673 8.132 7.80935C8.49789 8.02346 9.43616 9.16069 9.62041 9.60471C9.59382 9.63337 9.54196 9.68022 9.44313 9.75617Z" fill="#FD2F70"/>
</svg>
