<svg width="532" height="684" viewBox="0 0 532 684" fill="none" xmlns="http://www.w3.org/2000/svg">
<path opacity="0.41" d="M532.001 -52.0992L527.124 -54.9216L492.334 -34.6848V5.78876L527.124 26.0448L532.001 23.2032V-52.0992Z" fill="url(#paint0_linear_111_16405)"/>
<path opacity="0.93" d="M416.646 5.78876L451.437 26.0448L486.227 5.78876V-34.6848L451.437 -54.9216L416.646 -34.6848V5.78876Z" fill="url(#paint1_linear_111_16405)"/>
<path opacity="0.8" d="M340.941 5.78876L375.751 26.0448L410.541 5.78876V-34.6848L375.751 -54.9216L340.941 -34.6848V5.78876Z" fill="url(#paint2_linear_111_16405)"/>
<path opacity="0.84" d="M265.256 5.78876L300.046 26.0448L334.837 5.78876V-34.6848L300.046 -54.9216L265.256 -34.6848V5.78876Z" fill="url(#paint3_linear_111_16405)"/>
<path opacity="0.84" d="M189.568 5.78876L224.359 26.0448L259.149 5.78876V-34.6848L224.359 -54.9216L189.568 -34.6848V5.78876Z" fill="url(#paint4_linear_111_16405)"/>
<path opacity="0.25" d="M532 29.9808L530.176 31.0368V71.5104L532 72.5664V29.9808Z" fill="url(#paint5_linear_111_16405)"/>
<path opacity="0.82" d="M454.49 71.5105L489.281 91.7664L524.071 71.5105V31.0369L489.281 10.8L454.49 31.0369V71.5105Z" fill="url(#paint6_linear_111_16405)"/>
<path opacity="0.35" d="M378.805 71.5105L413.595 91.7664L448.385 71.5105V31.0369L413.595 10.8L378.805 31.0369V71.5105Z" fill="url(#paint7_linear_111_16405)"/>
<path opacity="0.1" d="M227.412 71.5105L262.202 91.7664L296.993 71.5105V31.0369L262.202 10.8L227.412 31.0369V71.5105Z" fill="url(#paint8_linear_111_16405)"/>
<path opacity="0.99" d="M151.707 71.5105L186.497 91.7664L221.307 71.5105V31.0369L186.497 10.8L151.707 31.0369V71.5105Z" fill="url(#paint9_linear_111_16405)"/>
<path opacity="0.63" d="M0 71.7104L34.7904 91.9664L69.6 71.7104V31.2368L34.7904 11L0 31.2368V71.7104Z" fill="url(#paint10_linear_111_16405)"/>
<path opacity="0.83" d="M532.001 79.3632L527.124 76.5216L492.334 96.7584V137.251L527.124 157.488L532.001 154.646V79.3632Z" fill="url(#paint11_linear_111_16405)"/>
<path opacity="0.63" d="M416 136.71L450.79 156.966L485.6 136.71V96.2368L450.79 76L416 96.2368V136.71Z" fill="url(#paint12_linear_111_16405)"/>
<path opacity="0.45" d="M343.241 138.454C342.163 137.827 341.5 136.675 341.5 135.428V99.5382C341.5 98.2915 342.163 97.1389 343.241 96.5124L374.05 78.6013C375.138 77.9689 376.481 77.9691 377.569 78.6018L408.36 96.5122C409.437 97.1388 410.1 98.2912 410.1 99.5376V135.429C410.1 136.675 409.437 137.828 408.36 138.454L377.569 156.365C376.481 156.997 375.138 156.997 374.05 156.365L343.241 138.454Z" fill="url(#paint13_linear_111_16405)" stroke="#D92B62"/>
<path opacity="0.2" d="M346.241 141.454C345.163 140.827 344.5 139.675 344.5 138.428V102.538C344.5 101.292 345.163 100.139 346.241 99.5124L377.05 81.6013C378.138 80.9689 379.481 80.9691 380.569 81.6018L411.36 99.5122C412.437 100.139 413.1 101.291 413.1 102.538V138.429C413.1 139.675 412.437 140.828 411.36 141.454L380.569 159.365C379.481 159.997 378.138 159.997 377.05 159.365L346.241 141.454Z" fill="url(#paint14_linear_111_16405)" stroke="#07BC93"/>
<path opacity="0.11" d="M265.256 137.251L300.046 157.488L334.837 137.251V96.7584L300.046 76.5216L265.256 96.7584V137.251Z" fill="url(#paint15_linear_111_16405)"/>
<path opacity="0.3" d="M189.568 137.251L224.359 157.488L259.149 137.251V96.7584L224.359 76.5216L189.568 96.7584V137.251Z" fill="url(#paint16_linear_111_16405)"/>
<path opacity="0.15" d="M532 161.424L530.176 162.48V202.973L532 204.029V161.424Z" fill="url(#paint17_linear_111_16405)"/>
<path opacity="0.2" d="M454.49 202.973L489.281 223.21L524.071 202.973V162.48L489.281 142.243L454.49 162.48V202.973Z" fill="url(#paint18_linear_111_16405)"/>
<path opacity="0.14" d="M378.805 202.973L413.595 223.21L448.385 202.973V162.48L413.595 142.243L378.805 162.48V202.973Z" fill="url(#paint19_linear_111_16405)"/>
<path opacity="0.31" d="M303.098 202.973L337.888 223.21L372.698 202.973V162.48L337.888 142.243L303.098 162.48V202.973Z" fill="url(#paint20_linear_111_16405)"/>
<path opacity="0.89" d="M227.412 202.973L262.202 223.21L296.993 202.973V162.48L262.202 142.243L227.412 162.48V202.973Z" fill="url(#paint21_linear_111_16405)"/>
<path opacity="0.05" d="M151.707 202.973L186.497 223.21L221.307 202.973V162.48L186.497 142.243L151.707 162.48V202.973Z" fill="url(#paint22_linear_111_16405)"/>
<path opacity="0.5" d="M76 202.73L110.81 222.966L145.6 202.73V162.237L110.81 142L76 162.237V202.73Z" fill="url(#paint23_linear_111_16405)"/>
<path opacity="0.89" d="M0.314453 202.973L35.1241 223.21L69.9145 202.973V162.48L35.1241 142.243L0.314453 162.48V202.973Z" fill="url(#paint24_linear_111_16405)"/>
<path opacity="0.17" d="M532.001 210.806L527.124 207.965L492.334 228.202V268.694L527.124 288.931L532.001 286.09V210.806Z" fill="url(#paint25_linear_111_16405)"/>
<path opacity="0.09" d="M340.941 268.694L375.751 288.931L410.541 268.694V228.202L375.751 207.965L340.941 228.202V268.694Z" fill="url(#paint26_linear_111_16405)"/>
<path opacity="0.63" d="M265 268.71L299.79 288.966L334.6 268.71V228.237L299.79 208L265 228.237V268.71Z" fill="url(#paint27_linear_111_16405)"/>
<path opacity="0.48" d="M189.568 268.694L224.359 288.931L259.149 268.694V228.202L224.359 207.965L189.568 228.202V268.694Z" fill="url(#paint28_linear_111_16405)"/>
<path opacity="0.5" d="M116.24 269.454C115.163 268.828 114.5 267.675 114.5 266.429V230.538C114.5 229.291 115.163 228.139 116.24 227.512L147.031 209.602C148.119 208.969 149.462 208.969 150.55 209.602L181.341 227.512C182.418 228.139 183.081 229.291 183.081 230.538V266.429C183.081 267.675 182.418 268.828 181.341 269.454L150.55 287.364C149.462 287.997 148.119 287.997 147.031 287.364L116.24 269.454Z" fill="url(#paint29_linear_111_16405)" stroke="#FD2F70"/>
<path opacity="0.2" d="M119.24 265.454C118.163 264.828 117.5 263.675 117.5 262.429V226.538C117.5 225.291 118.163 224.139 119.24 223.512L150.031 205.602C151.119 204.969 152.462 204.969 153.55 205.602L184.341 223.512C185.418 224.139 186.081 225.291 186.081 226.538V262.429C186.081 263.675 185.418 264.828 184.341 265.454L153.55 283.364C152.462 283.997 151.119 283.997 150.031 283.364L119.24 265.454Z" fill="url(#paint30_linear_111_16405)" stroke="#FD2F70"/>
<path opacity="0.63" d="M38 268.71L72.7904 288.966L107.6 268.71V228.237L72.7904 208L38 228.237V268.71Z" fill="url(#paint31_linear_111_16405)"/>
<path opacity="0.31" d="M532 292.867L530.176 293.923V334.416L532 335.472V292.867Z" fill="url(#paint32_linear_111_16405)"/>
<path opacity="0.4" d="M454.706 333.611C454.507 333.057 454.5 332.424 454.5 330.91V298.056C454.5 296.543 454.507 295.909 454.706 295.356C454.846 294.965 455.055 294.602 455.322 294.284C455.701 293.834 456.245 293.51 457.553 292.749L485.703 276.374C487.025 275.605 487.582 275.289 488.167 275.183C488.579 275.109 489.002 275.109 489.414 275.183C489.998 275.289 490.555 275.605 491.878 276.374L520.028 292.749C521.336 293.51 521.88 293.834 522.259 294.284C522.526 294.602 522.735 294.965 522.875 295.356C523.074 295.909 523.081 296.543 523.081 298.056V330.91C523.081 332.424 523.074 333.057 522.875 333.611C522.735 334.002 522.526 334.364 522.259 334.682C521.88 335.132 521.336 335.457 520.028 336.218L491.878 352.592C490.555 353.361 489.998 353.677 489.414 353.783C489.002 353.858 488.579 353.858 488.167 353.783C487.582 353.677 487.025 353.361 485.703 352.592L457.553 336.218C456.245 335.457 455.701 335.132 455.322 334.682C455.055 334.364 454.846 334.002 454.706 333.611Z" fill="url(#paint33_linear_111_16405)" stroke="#07BC93"/>
<path opacity="0.2" d="M448.706 335.611C448.507 335.057 448.5 334.424 448.5 332.91V300.056C448.5 298.543 448.507 297.909 448.706 297.356C448.846 296.965 449.055 296.602 449.322 296.284C449.701 295.834 450.245 295.51 451.553 294.749L479.703 278.374C481.025 277.605 481.582 277.289 482.167 277.183C482.579 277.109 483.002 277.109 483.414 277.183C483.998 277.289 484.555 277.605 485.878 278.374L514.028 294.749C515.336 295.51 515.88 295.834 516.259 296.284C516.526 296.602 516.735 296.965 516.875 297.356C517.074 297.909 517.081 298.543 517.081 300.056V332.91C517.081 334.424 517.074 335.057 516.875 335.611C516.735 336.002 516.526 336.364 516.259 336.682C515.88 337.132 515.336 337.457 514.028 338.218L485.878 354.592C484.555 355.361 483.998 355.677 483.414 355.783C483.002 355.858 482.579 355.858 482.167 355.783C481.582 355.677 481.025 355.361 479.703 354.592L451.553 338.218C450.245 337.457 449.701 337.132 449.322 336.682C449.055 336.364 448.846 336.002 448.706 335.611Z" fill="url(#paint34_linear_111_16405)" stroke="#07BC93"/>
<path opacity="0.01" d="M378.805 334.416L413.595 354.653L448.385 334.416V293.923L413.595 273.686L378.805 293.923V334.416Z" fill="url(#paint35_linear_111_16405)"/>
<path opacity="0.06" d="M303.098 334.416L337.888 354.653L372.698 334.416V293.923L337.888 273.686L303.098 293.923V334.416Z" fill="url(#paint36_linear_111_16405)"/>
<path opacity="0.75" d="M227.412 334.416L262.202 354.653L296.993 334.416V293.923L262.202 273.686L227.412 293.923V334.416Z" fill="url(#paint37_linear_111_16405)"/>
<path opacity="0.62" d="M76.0195 334.416L110.81 354.653L145.6 334.416V293.923L110.81 273.686L76.0195 293.923V334.416Z" fill="url(#paint38_linear_111_16405)"/>
<path opacity="0.95" d="M0.314453 334.416L35.1241 354.653L69.9145 334.416V293.923L35.1241 273.686L0.314453 293.923V334.416Z" fill="url(#paint39_linear_111_16405)"/>
<path opacity="0.19" d="M532.001 342.25L527.124 339.408L492.334 359.664V400.138L527.124 420.374L532.001 417.552V342.25Z" fill="url(#paint40_linear_111_16405)"/>
<path opacity="0.01" d="M416.646 400.138L451.437 420.374L486.227 400.138V359.664L451.437 339.408L416.646 359.664V400.138Z" fill="url(#paint41_linear_111_16405)"/>
<path opacity="0.89" d="M340.941 400.138L375.751 420.374L410.541 400.138V359.664L375.751 339.408L340.941 359.664V400.138Z" fill="url(#paint42_linear_111_16405)"/>
<path opacity="0.64" d="M265.256 400.138L300.046 420.374L334.837 400.138V359.664L300.046 339.408L265.256 359.664V400.138Z" fill="url(#paint43_linear_111_16405)"/>
<path opacity="0.54" d="M532 424.33L530.176 425.386V465.859L532 466.915V424.33Z" fill="url(#paint44_linear_111_16405)"/>
<path opacity="0.37" d="M454.49 465.859L489.281 486.096L524.071 465.859V425.386L489.281 405.13L454.49 425.386V465.859Z" fill="url(#paint45_linear_111_16405)"/>
<path opacity="0.6" d="M378.805 465.859L413.595 486.096L448.385 465.859V425.386L413.595 405.13L378.805 425.386V465.859Z" fill="url(#paint46_linear_111_16405)"/>
<path opacity="0.19" d="M303.098 465.859L337.888 486.096L372.698 465.859V425.386L337.888 405.13L303.098 425.386V465.859Z" fill="url(#paint47_linear_111_16405)"/>
<path opacity="0.33" d="M227.412 465.859L262.202 486.096L296.993 465.859V425.386L262.202 405.13L227.412 425.386V465.859Z" fill="url(#paint48_linear_111_16405)"/>
<path opacity="0.84" d="M532.001 473.693L527.124 470.851L492.334 491.107V531.581L527.124 551.818L532.001 548.995V473.693Z" fill="url(#paint49_linear_111_16405)"/>
<path opacity="0.02" d="M416.646 531.581L451.437 551.818L486.227 531.581V491.107L451.437 470.851L416.646 491.107V531.581Z" fill="url(#paint50_linear_111_16405)"/>
<path opacity="0.19" d="M340.941 531.581L375.751 551.818L410.541 531.581V491.107L375.751 470.851L340.941 491.107V531.581Z" fill="url(#paint51_linear_111_16405)"/>
<path opacity="0.63" d="M265 531.71L299.79 551.966L334.6 531.71V491.237L299.79 471L265 491.237V531.71Z" fill="url(#paint52_linear_111_16405)"/>
<path opacity="0.37" d="M532 555.773L530.176 556.829V597.302L532 598.358V555.773Z" fill="url(#paint53_linear_111_16405)"/>
<path opacity="0.02" d="M454.49 597.302L489.281 617.539L524.071 597.302V556.829L489.281 536.592L454.49 556.829V597.302Z" fill="url(#paint54_linear_111_16405)"/>
<path opacity="0.62" d="M381.045 598.027C379.968 597.4 379.305 596.248 379.305 595.002V559.13C379.305 557.883 379.968 556.731 381.045 556.104L411.835 538.194C412.923 537.561 414.267 537.561 415.355 538.194L446.145 556.104C447.223 556.731 447.885 557.883 447.885 559.13V595.002C447.885 596.248 447.223 597.4 446.145 598.027L415.355 615.937C414.267 616.57 412.923 616.57 411.835 615.937L381.045 598.027Z" fill="url(#paint55_linear_111_16405)" stroke="#FD2F70"/>
<path opacity="0.2" d="M384.24 602.435C383.163 601.808 382.5 600.656 382.5 599.41V563.538C382.5 562.291 383.163 561.139 384.24 560.512L415.031 542.602C416.118 541.969 417.462 541.969 418.55 542.602L449.341 560.512C450.418 561.139 451.081 562.291 451.081 563.538V599.41C451.081 600.656 450.418 601.808 449.341 602.435L418.55 620.345C417.462 620.978 416.118 620.978 415.031 620.345L384.24 602.435Z" fill="url(#paint56_linear_111_16405)" stroke="#FD2F70"/>
<path opacity="0.33" d="M303.098 597.302L337.888 617.539L372.698 597.302V556.829L337.888 536.592L303.098 556.829V597.302Z" fill="url(#paint57_linear_111_16405)"/>
<path opacity="0.49" d="M227.412 597.302L262.202 617.539L296.993 597.302V556.829L262.202 536.592L227.412 556.829V597.302Z" fill="url(#paint58_linear_111_16405)"/>
<path opacity="0.8" d="M151.707 597.302L186.497 617.539L221.307 597.302V556.829L186.497 536.592L151.707 556.829V597.302Z" fill="url(#paint59_linear_111_16405)"/>
<path opacity="0.8" d="M76.0195 597.302L110.81 617.539L145.6 597.302V556.829L110.81 536.592L76.0195 556.829V597.302Z" fill="url(#paint60_linear_111_16405)"/>
<path opacity="0.48" d="M0.314453 597.302L35.1241 617.539L69.9145 597.302V556.829L35.1241 536.592L0.314453 556.829V597.302Z" fill="url(#paint61_linear_111_16405)"/>
<path opacity="0.08" d="M532.001 605.136L527.124 602.314L492.334 622.55V663.024L527.124 683.261L532.001 680.438V605.136Z" fill="url(#paint62_linear_111_16405)"/>
<path opacity="0.07" d="M416.646 663.024L451.437 683.261L486.227 663.024V622.55L451.437 602.314L416.646 622.55V663.024Z" fill="url(#paint63_linear_111_16405)"/>
<path opacity="0.69" d="M340.941 663.024L375.751 683.261L410.541 663.024V622.55L375.751 602.314L340.941 622.55V663.024Z" fill="url(#paint64_linear_111_16405)"/>
<path opacity="0.46" d="M265.256 663.024L300.046 683.261L334.837 663.024V622.55L300.046 602.314L265.256 622.55V663.024Z" fill="url(#paint65_linear_111_16405)"/>
<path opacity="0.54" d="M189.568 663.024L224.359 683.261L259.149 663.024V622.55L224.359 602.314L189.568 622.55V663.024Z" fill="url(#paint66_linear_111_16405)"/>
<path opacity="0.01" d="M113.863 663.024L148.654 683.261L183.444 663.024V622.55L148.654 602.314L113.863 622.55V663.024Z" fill="url(#paint67_linear_111_16405)"/>
<path opacity="0.09" d="M38.1777 663.024L72.9682 683.261L107.759 663.024V622.55L72.9682 602.314L38.1777 622.55V663.024Z" fill="url(#paint68_linear_111_16405)"/>
<path opacity="0.14" d="M454.49 728.746L489.281 748.982L524.071 728.746V688.272L489.281 668.035L454.49 688.272V728.746Z" fill="url(#paint69_linear_111_16405)"/>
<path opacity="0.54" d="M378.805 728.746L413.595 748.982L448.385 728.746V688.272L413.595 668.035L378.805 688.272V728.746Z" fill="url(#paint70_linear_111_16405)"/>
<path opacity="0.49" d="M303.098 728.746L337.888 748.982L372.698 728.746V688.272L337.888 668.035L303.098 688.272V728.746Z" fill="url(#paint71_linear_111_16405)"/>
<path opacity="0.88" d="M227.412 728.746L262.202 748.982L296.993 728.746V688.272L262.202 668.035L227.412 688.272V728.746Z" fill="url(#paint72_linear_111_16405)"/>
<path opacity="0.74" d="M151.707 728.746L186.497 748.982L221.307 728.746V688.272L186.497 668.035L151.707 688.272V728.746Z" fill="url(#paint73_linear_111_16405)"/>
<defs>
<linearGradient id="paint0_linear_111_16405" x1="496.486" y1="9.94346" x2="551.614" y2="-45.1841" gradientUnits="userSpaceOnUse">
<stop stop-color="white"/>
<stop offset="0.4365" stop-color="#FCFCFC"/>
<stop offset="0.7633" stop-color="#F2F3F3"/>
<stop offset="1" stop-color="#E6E7E8"/>
</linearGradient>
<linearGradient id="paint1_linear_111_16405" x1="423.92" y1="13.0725" x2="478.954" y2="-41.9614" gradientUnits="userSpaceOnUse">
<stop stop-color="white"/>
<stop offset="0.4365" stop-color="#FCFCFC"/>
<stop offset="0.7633" stop-color="#F2F3F3"/>
<stop offset="1" stop-color="#E6E7E8"/>
</linearGradient>
<linearGradient id="paint2_linear_111_16405" x1="348.226" y1="13.0725" x2="403.26" y2="-41.9614" gradientUnits="userSpaceOnUse">
<stop stop-color="white"/>
<stop offset="0.4365" stop-color="#FCFCFC"/>
<stop offset="0.7633" stop-color="#F2F3F3"/>
<stop offset="1" stop-color="#E6E7E8"/>
</linearGradient>
<linearGradient id="paint3_linear_111_16405" x1="272.532" y1="13.0725" x2="327.565" y2="-41.9614" gradientUnits="userSpaceOnUse">
<stop stop-color="white"/>
<stop offset="0.4365" stop-color="#FCFCFC"/>
<stop offset="0.7633" stop-color="#F2F3F3"/>
<stop offset="1" stop-color="#E6E7E8"/>
</linearGradient>
<linearGradient id="paint4_linear_111_16405" x1="196.837" y1="13.0727" x2="251.87" y2="-41.9612" gradientUnits="userSpaceOnUse">
<stop stop-color="white"/>
<stop offset="0.4365" stop-color="#FCFCFC"/>
<stop offset="0.7633" stop-color="#F2F3F3"/>
<stop offset="1" stop-color="#E6E7E8"/>
</linearGradient>
<linearGradient id="paint5_linear_111_16405" x1="520.782" y1="62.1168" x2="576.062" y2="6.83682" gradientUnits="userSpaceOnUse">
<stop stop-color="white"/>
<stop offset="0.4365" stop-color="#FCFCFC"/>
<stop offset="0.7633" stop-color="#F2F3F3"/>
<stop offset="1" stop-color="#E6E7E8"/>
</linearGradient>
<linearGradient id="paint6_linear_111_16405" x1="461.768" y1="78.7965" x2="516.802" y2="23.7626" gradientUnits="userSpaceOnUse">
<stop stop-color="white"/>
<stop offset="0.4365" stop-color="#FCFCFC"/>
<stop offset="0.7633" stop-color="#F2F3F3"/>
<stop offset="1" stop-color="#E6E7E8"/>
</linearGradient>
<linearGradient id="paint7_linear_111_16405" x1="386.074" y1="78.7965" x2="441.108" y2="23.7626" gradientUnits="userSpaceOnUse">
<stop stop-color="white"/>
<stop offset="0.4365" stop-color="#FCFCFC"/>
<stop offset="0.7633" stop-color="#F2F3F3"/>
<stop offset="1" stop-color="#E6E7E8"/>
</linearGradient>
<linearGradient id="paint8_linear_111_16405" x1="234.684" y1="78.7963" x2="289.718" y2="23.7626" gradientUnits="userSpaceOnUse">
<stop stop-color="white"/>
<stop offset="0.4365" stop-color="#FCFCFC"/>
<stop offset="0.7633" stop-color="#F2F3F3"/>
<stop offset="1" stop-color="#E6E7E8"/>
</linearGradient>
<linearGradient id="paint9_linear_111_16405" x1="158.99" y1="78.7963" x2="214.024" y2="23.7625" gradientUnits="userSpaceOnUse">
<stop stop-color="white"/>
<stop offset="0.4365" stop-color="#FCFCFC"/>
<stop offset="0.7633" stop-color="#F2F3F3"/>
<stop offset="1" stop-color="#E6E7E8"/>
</linearGradient>
<linearGradient id="paint10_linear_111_16405" x1="59.5477" y1="28.592" x2="17.55" y2="80.1034" gradientUnits="userSpaceOnUse">
<stop stop-color="#36DBB6" stop-opacity="0.29"/>
<stop offset="1" stop-color="#36DBB6" stop-opacity="0"/>
</linearGradient>
<linearGradient id="paint11_linear_111_16405" x1="496.486" y1="141.39" x2="551.614" y2="86.2632" gradientUnits="userSpaceOnUse">
<stop stop-color="white"/>
<stop offset="0.4365" stop-color="#FCFCFC"/>
<stop offset="0.7633" stop-color="#F2F3F3"/>
<stop offset="1" stop-color="#E6E7E8"/>
</linearGradient>
<linearGradient id="paint12_linear_111_16405" x1="475.548" y1="93.592" x2="433.55" y2="145.103" gradientUnits="userSpaceOnUse">
<stop stop-color="#36DBB6" stop-opacity="0.29"/>
<stop offset="1" stop-color="#36DBB6" stop-opacity="0"/>
</linearGradient>
<linearGradient id="paint13_linear_111_16405" x1="348.285" y1="144.998" x2="403.318" y2="89.9644" gradientUnits="userSpaceOnUse">
<stop stop-color="white"/>
<stop offset="0.4365" stop-color="#FCFCFC"/>
<stop offset="0.7633" stop-color="#F2F3F3"/>
<stop offset="1" stop-color="#E6E7E8"/>
</linearGradient>
<linearGradient id="paint14_linear_111_16405" x1="351.285" y1="147.998" x2="406.318" y2="92.9644" gradientUnits="userSpaceOnUse">
<stop stop-color="white"/>
<stop offset="0.4365" stop-color="#FCFCFC"/>
<stop offset="0.7633" stop-color="#F2F3F3"/>
<stop offset="1" stop-color="#E6E7E8"/>
</linearGradient>
<linearGradient id="paint15_linear_111_16405" x1="272.532" y1="144.519" x2="327.565" y2="89.486" gradientUnits="userSpaceOnUse">
<stop stop-color="white"/>
<stop offset="0.4365" stop-color="#FCFCFC"/>
<stop offset="0.7633" stop-color="#F2F3F3"/>
<stop offset="1" stop-color="#E6E7E8"/>
</linearGradient>
<linearGradient id="paint16_linear_111_16405" x1="196.837" y1="144.52" x2="251.87" y2="89.4862" gradientUnits="userSpaceOnUse">
<stop stop-color="white"/>
<stop offset="0.4365" stop-color="#FCFCFC"/>
<stop offset="0.7633" stop-color="#F2F3F3"/>
<stop offset="1" stop-color="#E6E7E8"/>
</linearGradient>
<linearGradient id="paint17_linear_111_16405" x1="520.782" y1="193.563" x2="576.062" y2="138.283" gradientUnits="userSpaceOnUse">
<stop stop-color="white"/>
<stop offset="0.4365" stop-color="#FCFCFC"/>
<stop offset="0.7633" stop-color="#F2F3F3"/>
<stop offset="1" stop-color="#E6E7E8"/>
</linearGradient>
<linearGradient id="paint18_linear_111_16405" x1="461.768" y1="210.243" x2="516.802" y2="155.209" gradientUnits="userSpaceOnUse">
<stop stop-color="white"/>
<stop offset="0.4365" stop-color="#FCFCFC"/>
<stop offset="0.7633" stop-color="#F2F3F3"/>
<stop offset="1" stop-color="#E6E7E8"/>
</linearGradient>
<linearGradient id="paint19_linear_111_16405" x1="386.074" y1="210.243" x2="441.108" y2="155.209" gradientUnits="userSpaceOnUse">
<stop stop-color="white"/>
<stop offset="0.4365" stop-color="#FCFCFC"/>
<stop offset="0.7633" stop-color="#F2F3F3"/>
<stop offset="1" stop-color="#E6E7E8"/>
</linearGradient>
<linearGradient id="paint20_linear_111_16405" x1="310.378" y1="210.243" x2="365.412" y2="155.209" gradientUnits="userSpaceOnUse">
<stop stop-color="white"/>
<stop offset="0.4365" stop-color="#FCFCFC"/>
<stop offset="0.7633" stop-color="#F2F3F3"/>
<stop offset="1" stop-color="#E6E7E8"/>
</linearGradient>
<linearGradient id="paint21_linear_111_16405" x1="234.684" y1="210.243" x2="289.718" y2="155.209" gradientUnits="userSpaceOnUse">
<stop stop-color="white"/>
<stop offset="0.4365" stop-color="#FCFCFC"/>
<stop offset="0.7633" stop-color="#F2F3F3"/>
<stop offset="1" stop-color="#E6E7E8"/>
</linearGradient>
<linearGradient id="paint22_linear_111_16405" x1="158.99" y1="210.243" x2="214.024" y2="155.209" gradientUnits="userSpaceOnUse">
<stop stop-color="white"/>
<stop offset="0.4365" stop-color="#FCFCFC"/>
<stop offset="0.7633" stop-color="#F2F3F3"/>
<stop offset="1" stop-color="#E6E7E8"/>
</linearGradient>
<linearGradient id="paint23_linear_111_16405" x1="83.2854" y1="209.999" x2="138.319" y2="154.966" gradientUnits="userSpaceOnUse">
<stop stop-color="white"/>
<stop offset="0.4365" stop-color="#FCFCFC"/>
<stop offset="0.7633" stop-color="#F2F3F3"/>
<stop offset="1" stop-color="#E6E7E8"/>
</linearGradient>
<linearGradient id="paint24_linear_111_16405" x1="7.59989" y1="210.243" x2="62.6336" y2="155.209" gradientUnits="userSpaceOnUse">
<stop stop-color="white"/>
<stop offset="0.4365" stop-color="#FCFCFC"/>
<stop offset="0.7633" stop-color="#F2F3F3"/>
<stop offset="1" stop-color="#E6E7E8"/>
</linearGradient>
<linearGradient id="paint25_linear_111_16405" x1="496.486" y1="272.837" x2="551.614" y2="217.709" gradientUnits="userSpaceOnUse">
<stop stop-color="white"/>
<stop offset="0.4365" stop-color="#FCFCFC"/>
<stop offset="0.7633" stop-color="#F2F3F3"/>
<stop offset="1" stop-color="#E6E7E8"/>
</linearGradient>
<linearGradient id="paint26_linear_111_16405" x1="348.226" y1="275.966" x2="403.26" y2="220.932" gradientUnits="userSpaceOnUse">
<stop stop-color="white"/>
<stop offset="0.4365" stop-color="#FCFCFC"/>
<stop offset="0.7633" stop-color="#F2F3F3"/>
<stop offset="1" stop-color="#E6E7E8"/>
</linearGradient>
<linearGradient id="paint27_linear_111_16405" x1="324.548" y1="225.592" x2="282.55" y2="277.103" gradientUnits="userSpaceOnUse">
<stop stop-color="#36DBB6" stop-opacity="0.29"/>
<stop offset="1" stop-color="#36DBB6" stop-opacity="0"/>
</linearGradient>
<linearGradient id="paint28_linear_111_16405" x1="196.837" y1="275.966" x2="251.87" y2="220.932" gradientUnits="userSpaceOnUse">
<stop stop-color="white"/>
<stop offset="0.4365" stop-color="#FCFCFC"/>
<stop offset="0.7633" stop-color="#F2F3F3"/>
<stop offset="1" stop-color="#E6E7E8"/>
</linearGradient>
<linearGradient id="paint29_linear_111_16405" x1="121.279" y1="276.001" x2="176.313" y2="220.967" gradientUnits="userSpaceOnUse">
<stop stop-color="white"/>
<stop offset="0.4365" stop-color="#FCFCFC"/>
<stop offset="0.7633" stop-color="#F2F3F3"/>
<stop offset="1" stop-color="#E6E7E8"/>
</linearGradient>
<linearGradient id="paint30_linear_111_16405" x1="124.279" y1="272.001" x2="179.313" y2="216.967" gradientUnits="userSpaceOnUse">
<stop stop-color="white"/>
<stop offset="0.4365" stop-color="#FCFCFC"/>
<stop offset="0.7633" stop-color="#F2F3F3"/>
<stop offset="1" stop-color="#E6E7E8"/>
</linearGradient>
<linearGradient id="paint31_linear_111_16405" x1="38" y1="288.966" x2="112.466" y2="212.754" gradientUnits="userSpaceOnUse">
<stop stop-color="white" stop-opacity="0"/>
<stop offset="1" stop-color="#FD2F70" stop-opacity="0.32"/>
</linearGradient>
<linearGradient id="paint32_linear_111_16405" x1="520.782" y1="325.009" x2="576.062" y2="269.729" gradientUnits="userSpaceOnUse">
<stop stop-color="white"/>
<stop offset="0.4365" stop-color="#FCFCFC"/>
<stop offset="0.7633" stop-color="#F2F3F3"/>
<stop offset="1" stop-color="#E6E7E8"/>
</linearGradient>
<linearGradient id="paint33_linear_111_16405" x1="461.277" y1="342.002" x2="516.311" y2="286.968" gradientUnits="userSpaceOnUse">
<stop stop-color="white"/>
<stop offset="0.4365" stop-color="#FCFCFC"/>
<stop offset="0.7633" stop-color="#F2F3F3"/>
<stop offset="1" stop-color="#E6E7E8"/>
</linearGradient>
<linearGradient id="paint34_linear_111_16405" x1="455.277" y1="344.002" x2="510.311" y2="288.968" gradientUnits="userSpaceOnUse">
<stop stop-color="white"/>
<stop offset="0.4365" stop-color="#FCFCFC"/>
<stop offset="0.7633" stop-color="#F2F3F3"/>
<stop offset="1" stop-color="#E6E7E8"/>
</linearGradient>
<linearGradient id="paint35_linear_111_16405" x1="386.074" y1="341.689" x2="441.108" y2="286.655" gradientUnits="userSpaceOnUse">
<stop stop-color="white"/>
<stop offset="0.4365" stop-color="#FCFCFC"/>
<stop offset="0.7633" stop-color="#F2F3F3"/>
<stop offset="1" stop-color="#E6E7E8"/>
</linearGradient>
<linearGradient id="paint36_linear_111_16405" x1="310.378" y1="341.689" x2="365.412" y2="286.655" gradientUnits="userSpaceOnUse">
<stop stop-color="white"/>
<stop offset="0.4365" stop-color="#FCFCFC"/>
<stop offset="0.7633" stop-color="#F2F3F3"/>
<stop offset="1" stop-color="#E6E7E8"/>
</linearGradient>
<linearGradient id="paint37_linear_111_16405" x1="234.684" y1="341.689" x2="289.718" y2="286.655" gradientUnits="userSpaceOnUse">
<stop stop-color="white"/>
<stop offset="0.4365" stop-color="#FCFCFC"/>
<stop offset="0.7633" stop-color="#F2F3F3"/>
<stop offset="1" stop-color="#E6E7E8"/>
</linearGradient>
<linearGradient id="paint38_linear_111_16405" x1="83.2946" y1="341.689" x2="138.328" y2="286.655" gradientUnits="userSpaceOnUse">
<stop stop-color="white"/>
<stop offset="0.4365" stop-color="#FCFCFC"/>
<stop offset="0.7633" stop-color="#F2F3F3"/>
<stop offset="1" stop-color="#E6E7E8"/>
</linearGradient>
<linearGradient id="paint39_linear_111_16405" x1="7.59989" y1="341.689" x2="62.6336" y2="286.655" gradientUnits="userSpaceOnUse">
<stop stop-color="white"/>
<stop offset="0.4365" stop-color="#FCFCFC"/>
<stop offset="0.7633" stop-color="#F2F3F3"/>
<stop offset="1" stop-color="#E6E7E8"/>
</linearGradient>
<linearGradient id="paint40_linear_111_16405" x1="496.486" y1="404.283" x2="551.614" y2="349.156" gradientUnits="userSpaceOnUse">
<stop stop-color="white"/>
<stop offset="0.4365" stop-color="#FCFCFC"/>
<stop offset="0.7633" stop-color="#F2F3F3"/>
<stop offset="1" stop-color="#E6E7E8"/>
</linearGradient>
<linearGradient id="paint41_linear_111_16405" x1="423.92" y1="407.412" x2="478.954" y2="352.378" gradientUnits="userSpaceOnUse">
<stop stop-color="white"/>
<stop offset="0.4365" stop-color="#FCFCFC"/>
<stop offset="0.7633" stop-color="#F2F3F3"/>
<stop offset="1" stop-color="#E6E7E8"/>
</linearGradient>
<linearGradient id="paint42_linear_111_16405" x1="348.226" y1="407.412" x2="403.26" y2="352.379" gradientUnits="userSpaceOnUse">
<stop stop-color="white"/>
<stop offset="0.4365" stop-color="#FCFCFC"/>
<stop offset="0.7633" stop-color="#F2F3F3"/>
<stop offset="1" stop-color="#E6E7E8"/>
</linearGradient>
<linearGradient id="paint43_linear_111_16405" x1="272.532" y1="407.412" x2="327.565" y2="352.379" gradientUnits="userSpaceOnUse">
<stop stop-color="white"/>
<stop offset="0.4365" stop-color="#FCFCFC"/>
<stop offset="0.7633" stop-color="#F2F3F3"/>
<stop offset="1" stop-color="#E6E7E8"/>
</linearGradient>
<linearGradient id="paint44_linear_111_16405" x1="520.782" y1="456.456" x2="576.062" y2="401.176" gradientUnits="userSpaceOnUse">
<stop stop-color="white"/>
<stop offset="0.4365" stop-color="#FCFCFC"/>
<stop offset="0.7633" stop-color="#F2F3F3"/>
<stop offset="1" stop-color="#E6E7E8"/>
</linearGradient>
<linearGradient id="paint45_linear_111_16405" x1="454.49" y1="486.096" x2="528.956" y2="409.904" gradientUnits="userSpaceOnUse">
<stop stop-color="white" stop-opacity="0"/>
<stop offset="1" stop-color="#FD2F70" stop-opacity="0.32"/>
</linearGradient>
<linearGradient id="paint46_linear_111_16405" x1="386.074" y1="473.135" x2="441.108" y2="418.101" gradientUnits="userSpaceOnUse">
<stop stop-color="white"/>
<stop offset="0.4365" stop-color="#FCFCFC"/>
<stop offset="0.7633" stop-color="#F2F3F3"/>
<stop offset="1" stop-color="#E6E7E8"/>
</linearGradient>
<linearGradient id="paint47_linear_111_16405" x1="310.378" y1="473.135" x2="365.412" y2="418.101" gradientUnits="userSpaceOnUse">
<stop stop-color="white"/>
<stop offset="0.4365" stop-color="#FCFCFC"/>
<stop offset="0.7633" stop-color="#F2F3F3"/>
<stop offset="1" stop-color="#E6E7E8"/>
</linearGradient>
<linearGradient id="paint48_linear_111_16405" x1="234.684" y1="473.135" x2="289.718" y2="418.101" gradientUnits="userSpaceOnUse">
<stop stop-color="white"/>
<stop offset="0.4365" stop-color="#FCFCFC"/>
<stop offset="0.7633" stop-color="#F2F3F3"/>
<stop offset="1" stop-color="#E6E7E8"/>
</linearGradient>
<linearGradient id="paint49_linear_111_16405" x1="496.486" y1="535.729" x2="551.614" y2="480.601" gradientUnits="userSpaceOnUse">
<stop stop-color="white"/>
<stop offset="0.4365" stop-color="#FCFCFC"/>
<stop offset="0.7633" stop-color="#F2F3F3"/>
<stop offset="1" stop-color="#E6E7E8"/>
</linearGradient>
<linearGradient id="paint50_linear_111_16405" x1="423.92" y1="538.858" x2="478.954" y2="483.824" gradientUnits="userSpaceOnUse">
<stop stop-color="white"/>
<stop offset="0.4365" stop-color="#FCFCFC"/>
<stop offset="0.7633" stop-color="#F2F3F3"/>
<stop offset="1" stop-color="#E6E7E8"/>
</linearGradient>
<linearGradient id="paint51_linear_111_16405" x1="348.226" y1="538.858" x2="403.26" y2="483.824" gradientUnits="userSpaceOnUse">
<stop stop-color="white"/>
<stop offset="0.4365" stop-color="#FCFCFC"/>
<stop offset="0.7633" stop-color="#F2F3F3"/>
<stop offset="1" stop-color="#E6E7E8"/>
</linearGradient>
<linearGradient id="paint52_linear_111_16405" x1="324.548" y1="488.592" x2="282.55" y2="540.103" gradientUnits="userSpaceOnUse">
<stop stop-color="#36DBB6" stop-opacity="0.29"/>
<stop offset="1" stop-color="#36DBB6" stop-opacity="0"/>
</linearGradient>
<linearGradient id="paint53_linear_111_16405" x1="520.782" y1="587.902" x2="576.062" y2="532.622" gradientUnits="userSpaceOnUse">
<stop stop-color="white"/>
<stop offset="0.4365" stop-color="#FCFCFC"/>
<stop offset="0.7633" stop-color="#F2F3F3"/>
<stop offset="1" stop-color="#E6E7E8"/>
</linearGradient>
<linearGradient id="paint54_linear_111_16405" x1="461.768" y1="604.582" x2="516.802" y2="549.548" gradientUnits="userSpaceOnUse">
<stop stop-color="white"/>
<stop offset="0.4365" stop-color="#FCFCFC"/>
<stop offset="0.7633" stop-color="#F2F3F3"/>
<stop offset="1" stop-color="#E6E7E8"/>
</linearGradient>
<linearGradient id="paint55_linear_111_16405" x1="386.074" y1="604.582" x2="441.108" y2="549.548" gradientUnits="userSpaceOnUse">
<stop stop-color="white"/>
<stop offset="0.4365" stop-color="#FCFCFC"/>
<stop offset="0.7633" stop-color="#F2F3F3"/>
<stop offset="1" stop-color="#E6E7E8"/>
</linearGradient>
<linearGradient id="paint56_linear_111_16405" x1="389.269" y1="608.99" x2="444.303" y2="553.956" gradientUnits="userSpaceOnUse">
<stop stop-color="white"/>
<stop offset="0.4365" stop-color="#FCFCFC"/>
<stop offset="0.7633" stop-color="#F2F3F3"/>
<stop offset="1" stop-color="#E6E7E8"/>
</linearGradient>
<linearGradient id="paint57_linear_111_16405" x1="310.378" y1="604.582" x2="365.412" y2="549.548" gradientUnits="userSpaceOnUse">
<stop stop-color="white"/>
<stop offset="0.4365" stop-color="#FCFCFC"/>
<stop offset="0.7633" stop-color="#F2F3F3"/>
<stop offset="1" stop-color="#E6E7E8"/>
</linearGradient>
<linearGradient id="paint58_linear_111_16405" x1="234.684" y1="604.582" x2="289.718" y2="549.548" gradientUnits="userSpaceOnUse">
<stop stop-color="white"/>
<stop offset="0.4365" stop-color="#FCFCFC"/>
<stop offset="0.7633" stop-color="#F2F3F3"/>
<stop offset="1" stop-color="#E6E7E8"/>
</linearGradient>
<linearGradient id="paint59_linear_111_16405" x1="158.99" y1="604.582" x2="214.024" y2="549.548" gradientUnits="userSpaceOnUse">
<stop stop-color="white"/>
<stop offset="0.4365" stop-color="#FCFCFC"/>
<stop offset="0.7633" stop-color="#F2F3F3"/>
<stop offset="1" stop-color="#E6E7E8"/>
</linearGradient>
<linearGradient id="paint60_linear_111_16405" x1="83.2944" y1="604.582" x2="138.328" y2="549.548" gradientUnits="userSpaceOnUse">
<stop stop-color="white"/>
<stop offset="0.4365" stop-color="#FCFCFC"/>
<stop offset="0.7633" stop-color="#F2F3F3"/>
<stop offset="1" stop-color="#E6E7E8"/>
</linearGradient>
<linearGradient id="paint61_linear_111_16405" x1="7.5997" y1="604.582" x2="62.6336" y2="549.548" gradientUnits="userSpaceOnUse">
<stop stop-color="white"/>
<stop offset="0.4365" stop-color="#FCFCFC"/>
<stop offset="0.7633" stop-color="#F2F3F3"/>
<stop offset="1" stop-color="#E6E7E8"/>
</linearGradient>
<linearGradient id="paint62_linear_111_16405" x1="496.486" y1="667.176" x2="551.614" y2="612.048" gradientUnits="userSpaceOnUse">
<stop stop-color="white"/>
<stop offset="0.4365" stop-color="#FCFCFC"/>
<stop offset="0.7633" stop-color="#F2F3F3"/>
<stop offset="1" stop-color="#E6E7E8"/>
</linearGradient>
<linearGradient id="paint63_linear_111_16405" x1="416.646" y1="683.261" x2="491.094" y2="607.069" gradientUnits="userSpaceOnUse">
<stop stop-color="white" stop-opacity="0"/>
<stop offset="1" stop-color="#FD2F70" stop-opacity="0.32"/>
</linearGradient>
<linearGradient id="paint64_linear_111_16405" x1="348.226" y1="670.305" x2="403.26" y2="615.271" gradientUnits="userSpaceOnUse">
<stop stop-color="white"/>
<stop offset="0.4365" stop-color="#FCFCFC"/>
<stop offset="0.7633" stop-color="#F2F3F3"/>
<stop offset="1" stop-color="#E6E7E8"/>
</linearGradient>
<linearGradient id="paint65_linear_111_16405" x1="272.532" y1="670.305" x2="327.565" y2="615.271" gradientUnits="userSpaceOnUse">
<stop stop-color="white"/>
<stop offset="0.4365" stop-color="#FCFCFC"/>
<stop offset="0.7633" stop-color="#F2F3F3"/>
<stop offset="1" stop-color="#E6E7E8"/>
</linearGradient>
<linearGradient id="paint66_linear_111_16405" x1="196.837" y1="670.305" x2="251.87" y2="615.271" gradientUnits="userSpaceOnUse">
<stop stop-color="white"/>
<stop offset="0.4365" stop-color="#FCFCFC"/>
<stop offset="0.7633" stop-color="#F2F3F3"/>
<stop offset="1" stop-color="#E6E7E8"/>
</linearGradient>
<linearGradient id="paint67_linear_111_16405" x1="121.142" y1="670.305" x2="176.176" y2="615.271" gradientUnits="userSpaceOnUse">
<stop stop-color="white"/>
<stop offset="0.4365" stop-color="#FCFCFC"/>
<stop offset="0.7633" stop-color="#F2F3F3"/>
<stop offset="1" stop-color="#E6E7E8"/>
</linearGradient>
<linearGradient id="paint68_linear_111_16405" x1="45.4484" y1="670.304" x2="100.482" y2="615.271" gradientUnits="userSpaceOnUse">
<stop stop-color="white"/>
<stop offset="0.4365" stop-color="#FCFCFC"/>
<stop offset="0.7633" stop-color="#F2F3F3"/>
<stop offset="1" stop-color="#E6E7E8"/>
</linearGradient>
<linearGradient id="paint69_linear_111_16405" x1="461.768" y1="736.028" x2="516.802" y2="680.993" gradientUnits="userSpaceOnUse">
<stop stop-color="white"/>
<stop offset="0.4365" stop-color="#FCFCFC"/>
<stop offset="0.7633" stop-color="#F2F3F3"/>
<stop offset="1" stop-color="#E6E7E8"/>
</linearGradient>
<linearGradient id="paint70_linear_111_16405" x1="386.074" y1="736.028" x2="441.108" y2="680.993" gradientUnits="userSpaceOnUse">
<stop stop-color="white"/>
<stop offset="0.4365" stop-color="#FCFCFC"/>
<stop offset="0.7633" stop-color="#F2F3F3"/>
<stop offset="1" stop-color="#E6E7E8"/>
</linearGradient>
<linearGradient id="paint71_linear_111_16405" x1="310.378" y1="736.027" x2="365.412" y2="680.993" gradientUnits="userSpaceOnUse">
<stop stop-color="white"/>
<stop offset="0.4365" stop-color="#FCFCFC"/>
<stop offset="0.7633" stop-color="#F2F3F3"/>
<stop offset="1" stop-color="#E6E7E8"/>
</linearGradient>
<linearGradient id="paint72_linear_111_16405" x1="234.684" y1="736.027" x2="289.718" y2="680.993" gradientUnits="userSpaceOnUse">
<stop stop-color="white"/>
<stop offset="0.4365" stop-color="#FCFCFC"/>
<stop offset="0.7633" stop-color="#F2F3F3"/>
<stop offset="1" stop-color="#E6E7E8"/>
</linearGradient>
<linearGradient id="paint73_linear_111_16405" x1="158.99" y1="736.027" x2="214.024" y2="680.993" gradientUnits="userSpaceOnUse">
<stop stop-color="white"/>
<stop offset="0.4365" stop-color="#FCFCFC"/>
<stop offset="0.7633" stop-color="#F2F3F3"/>
<stop offset="1" stop-color="#E6E7E8"/>
</linearGradient>
</defs>
</svg>
