<svg width="564" height="684" viewBox="0 0 564 684" fill="none" xmlns="http://www.w3.org/2000/svg">
<path opacity="0.66" d="M71.9226 688.272L37.1322 668.035L2.3418 688.272V728.746L37.1322 749.002L71.9226 728.746V688.272Z" fill="url(#paint0_linear_111_16293)"/>
<path opacity="0.3" d="M147.61 688.272L112.82 668.035L78.0293 688.272V728.746L112.82 749.002L147.61 728.746V688.272Z" fill="url(#paint1_linear_111_16293)"/>
<path opacity="0.77" d="M223.315 688.272L188.525 668.035L153.734 688.272V728.746L188.525 749.002L223.315 728.746V688.272Z" fill="url(#paint2_linear_111_16293)"/>
<path opacity="0.75" d="M299.001 688.272L264.21 668.035L229.42 688.272V728.746L264.21 749.002L299.001 728.746V688.272Z" fill="url(#paint3_linear_111_16293)"/>
<path opacity="0.8" d="M374.707 688.272L339.917 668.035L305.107 688.272V728.746L339.917 749.002L374.707 728.746V688.272Z" fill="url(#paint4_linear_111_16293)"/>
<path opacity="0.83" d="M450.393 688.272L415.603 668.035L380.812 688.272V728.746L415.603 749.002L450.393 728.746V688.272Z" fill="url(#paint5_linear_111_16293)"/>
<path opacity="0.05" d="M526.1 688.272L491.29 668.035L456.5 688.272V728.746L491.29 749.002L526.1 728.746V688.272Z" fill="url(#paint6_linear_111_16293)"/>
<path opacity="0.87" d="M0 682.858L34.08 663.024V622.55L0 602.717V682.858Z" fill="url(#paint7_linear_111_16293)"/>
<path opacity="0.89" d="M109.766 622.55L74.9759 602.314L40.1855 622.55V663.024L74.9759 683.261L109.766 663.024V622.55Z" fill="url(#paint8_linear_111_16293)"/>
<path opacity="0.5" d="M185.471 622.55L150.661 602.314L115.871 622.55V663.024L150.661 683.261L185.471 663.024V622.55Z" fill="url(#paint9_linear_111_16293)"/>
<path opacity="0.8" d="M261.159 622.55L226.369 602.314L191.578 622.55V663.024L226.369 683.261L261.159 663.024V622.55Z" fill="url(#paint10_linear_111_16293)"/>
<path opacity="0.01" d="M336.864 622.55L302.054 602.314L267.264 622.55V663.024L302.054 683.261L336.864 663.024V622.55Z" fill="url(#paint11_linear_111_16293)"/>
<path opacity="0.54" d="M412.55 622.55L377.759 602.314L342.969 622.55V663.024L377.759 683.261L412.55 663.024V622.55Z" fill="url(#paint12_linear_111_16293)"/>
<path opacity="0.99" d="M563.942 622.55L529.151 602.314L494.342 622.55V663.024L529.151 683.261L563.942 663.024V622.55Z" fill="url(#paint13_linear_111_16293)"/>
<path opacity="0.8" d="M71.9226 556.829L37.1322 536.592L2.3418 556.829V597.302L37.1322 617.539L71.9226 597.302V556.829Z" fill="url(#paint14_linear_111_16293)"/>
<path opacity="0.8" d="M147.61 556.829L112.82 536.592L78.0293 556.829V597.302L112.82 617.539L147.61 597.302V556.829Z" fill="url(#paint15_linear_111_16293)"/>
<path opacity="0.04" d="M223.315 556.829L188.525 536.592L153.734 556.829V597.302L188.525 617.539L223.315 597.302V556.829Z" fill="url(#paint16_linear_111_16293)"/>
<path opacity="0.36" d="M299.001 556.829L264.21 536.592L229.42 556.829V597.302L264.21 617.539L299.001 597.302V556.829Z" fill="url(#paint17_linear_111_16293)"/>
<path opacity="0.35" d="M374.707 556.829L339.917 536.592L305.107 556.829V597.302L339.917 617.539L374.707 597.302V556.829Z" fill="url(#paint18_linear_111_16293)"/>
<path opacity="0.82" d="M450.393 556.829L415.603 536.592L380.812 556.829V597.302L415.603 617.539L450.393 597.302V556.829Z" fill="url(#paint19_linear_111_16293)"/>
<path opacity="0.36" d="M0 551.395L34.08 531.581V491.107L0 471.274V551.395Z" fill="url(#paint20_linear_111_16293)"/>
<path d="M109.766 491.107L74.9759 470.851L40.1855 491.107V531.581L74.9759 551.818L109.766 531.581V491.107Z" fill="url(#paint21_linear_111_16293)"/>
<path opacity="0.29" d="M185.471 491.107L150.661 470.851L115.871 491.107V531.581L150.661 551.818L185.471 531.581V491.107Z" fill="url(#paint22_linear_111_16293)"/>
<path opacity="0.25" d="M261.159 491.107L226.369 470.851L191.578 491.107V531.581L226.369 551.818L261.159 531.581V491.107Z" fill="url(#paint23_linear_111_16293)"/>
<path opacity="0.95" d="M336.864 491.107L302.054 470.851L267.264 491.107V531.581L302.054 551.818L336.864 531.581V491.107Z" fill="url(#paint24_linear_111_16293)"/>
<path opacity="0.47" d="M412.55 491.107L377.759 470.851L342.969 491.107V531.581L377.759 551.818L412.55 531.581V491.107Z" fill="url(#paint25_linear_111_16293)"/>
<path opacity="0.51" d="M488.237 491.107L453.447 470.851L418.656 491.107V531.581L453.447 551.818L488.237 531.581V491.107Z" fill="url(#paint26_linear_111_16293)"/>
<path opacity="0.21" d="M563.942 491.107L529.151 470.851L494.342 491.107V531.581L529.151 551.818L563.942 531.581V491.107Z" fill="url(#paint27_linear_111_16293)"/>
<path opacity="0.54" d="M69.3419 424.531C70.4185 425.158 71.0808 426.31 71.0808 427.556V463.429C71.0808 464.675 70.418 465.828 69.3406 466.454L38.5502 484.364C37.4623 484.997 36.1185 484.997 35.0306 484.364L4.24019 466.454C3.16282 465.828 2.5 464.675 2.5 463.429V427.556C2.5 426.31 3.16228 425.158 4.23895 424.531L35.0293 406.604C36.1179 405.97 37.463 405.97 38.5515 406.604L69.3419 424.531Z" stroke="#D92B62"/>
<path opacity="0.2" d="M72.3419 428.531C73.4185 429.158 74.0808 430.31 74.0808 431.556V467.429C74.0808 468.675 73.418 469.828 72.3406 470.454L41.5502 488.364C40.4623 488.997 39.1185 488.997 38.0306 488.364L7.24019 470.454C6.16282 469.828 5.5 468.675 5.5 467.429V431.556C5.5 430.31 6.16228 429.158 7.23895 428.531L38.0293 410.604C39.1179 409.97 40.463 409.97 41.5515 410.604L72.3419 428.531Z" stroke="#D92B62"/>
<path opacity="0.44" d="M147.61 425.386L112.82 405.13L78.0293 425.386V465.859L112.82 486.096L147.61 465.859V425.386Z" fill="url(#paint28_linear_111_16293)"/>
<path opacity="0.85" d="M223.315 425.386L188.525 405.13L153.734 425.386V465.859L188.525 486.096L223.315 465.859V425.386Z" fill="url(#paint29_linear_111_16293)"/>
<path opacity="0.37" d="M299.001 425.386L264.21 405.13L229.42 425.386V465.859L264.21 486.096L299.001 465.859V425.386Z" fill="url(#paint30_linear_111_16293)"/>
<path opacity="0.29" d="M374.707 425.386L339.917 405.13L305.107 425.386V465.859L339.917 486.096L374.707 465.859V425.386Z" fill="url(#paint31_linear_111_16293)"/>
<path opacity="0.27" d="M0 419.952L34.08 400.138V359.664L0 339.83V419.952Z" fill="url(#paint32_linear_111_16293)"/>
<path opacity="0.54" d="M109.766 359.664L74.9759 339.408L40.1855 359.664V400.138L74.9759 420.374L109.766 400.138V359.664Z" fill="url(#paint33_linear_111_16293)"/>
<path opacity="0.63" d="M115 399.71L149.79 419.966L184.6 399.71V359.237L149.79 339L115 359.237V399.71Z" fill="url(#paint34_linear_111_16293)"/>
<path opacity="0.65" d="M261.159 359.664L226.369 339.408L191.578 359.664V400.138L226.369 420.374L261.159 400.138V359.664Z" fill="url(#paint35_linear_111_16293)"/>
<path opacity="0.9" d="M336.6 359.256L301.79 339L267 359.256V399.73L301.79 419.966L336.6 399.73V359.256Z" fill="url(#paint36_linear_111_16293)"/>
<path d="M412.55 359.664L377.759 339.408L342.969 359.664V400.138L377.759 420.374L412.55 400.138V359.664Z" fill="url(#paint37_linear_111_16293)"/>
<path opacity="0.03" d="M488.237 359.664L453.447 339.408L418.656 359.664V400.138L453.447 420.374L488.237 400.138V359.664Z" fill="url(#paint38_linear_111_16293)"/>
<path opacity="0.98" d="M71.9226 293.923L37.1322 273.686L2.3418 293.923V334.416L37.1322 354.653L71.9226 334.416V293.923Z" fill="url(#paint39_linear_111_16293)"/>
<path opacity="0.27" d="M147.61 293.923L112.82 273.686L78.0293 293.923V334.416L112.82 354.653L147.61 334.416V293.923Z" fill="url(#paint40_linear_111_16293)"/>
<path opacity="0.4" d="M221.075 293.199C222.152 293.825 222.815 294.978 222.815 296.224V332.115C222.815 333.362 222.152 334.514 221.075 335.141L190.285 353.051C189.197 353.684 187.853 353.684 186.765 353.051L155.975 335.141C154.897 334.514 154.234 333.362 154.234 332.115V296.224C154.234 294.978 154.897 293.825 155.975 293.199L186.765 275.288C187.853 274.656 189.197 274.656 190.285 275.288L221.075 293.199Z" fill="url(#paint41_linear_111_16293)" stroke="#FD2F70"/>
<path opacity="0.2" d="M219.341 297.512C220.418 298.139 221.081 299.291 221.081 300.538V336.429C221.081 337.675 220.418 338.828 219.341 339.454L188.55 357.364C187.462 357.997 186.118 357.997 185.031 357.364L154.24 339.454C153.163 338.828 152.5 337.675 152.5 336.429V300.538C152.5 299.291 153.163 298.139 154.24 297.512L185.031 279.602C186.118 278.969 187.462 278.969 188.55 279.602L219.341 297.512Z" fill="url(#paint42_linear_111_16293)" stroke="#07BC93"/>
<path opacity="0.5" d="M299.001 293.923L264.21 273.686L229.42 293.923V334.416L264.21 354.653L299.001 334.416V293.923Z" fill="url(#paint43_linear_111_16293)"/>
<path opacity="0.96" d="M374.707 293.923L339.917 273.686L305.107 293.923V334.416L339.917 354.653L374.707 334.416V293.923Z" fill="url(#paint44_linear_111_16293)"/>
<path opacity="0.93" d="M450.393 293.923L415.603 273.686L380.812 293.923V334.416L415.603 354.653L450.393 334.416V293.923Z" fill="url(#paint45_linear_111_16293)"/>
<path opacity="0.86" d="M0 288.509L34.08 268.694V228.202L0 208.387V288.509Z" fill="url(#paint46_linear_111_16293)"/>
<path opacity="0.27" d="M109.766 228.202L74.9759 207.965L40.1855 228.202V268.694L74.9759 288.931L109.766 268.694V228.202Z" fill="url(#paint47_linear_111_16293)"/>
<path opacity="0.31" d="M185.471 228.202L150.661 207.965L115.871 228.202V268.694L150.661 288.931L185.471 268.694V228.202Z" fill="url(#paint48_linear_111_16293)"/>
<path opacity="0.68" d="M261.159 228.202L226.369 207.965L191.578 228.202V268.694L226.369 288.931L261.159 268.694V228.202Z" fill="url(#paint49_linear_111_16293)"/>
<path opacity="0.3" d="M336.864 228.202L302.054 207.965L267.264 228.202V268.694L302.054 288.931L336.864 268.694V228.202Z" fill="url(#paint50_linear_111_16293)"/>
<path opacity="0.87" d="M412.55 228.202L377.759 207.965L342.969 228.202V268.694L377.759 288.931L412.55 268.694V228.202Z" fill="url(#paint51_linear_111_16293)"/>
<path opacity="0.95" d="M488.237 228.202L453.447 207.965L418.656 228.202V268.694L453.447 288.931L488.237 268.694V228.202Z" fill="url(#paint52_linear_111_16293)"/>
<path opacity="0.58" d="M69.6824 161.755C70.7598 162.382 71.4226 163.534 71.4226 164.781V200.672C71.4226 201.918 70.7598 203.071 69.6824 203.697L38.892 221.607C37.8041 222.24 36.4603 222.24 35.3724 221.607L4.58199 203.697C3.50461 203.071 2.8418 201.918 2.8418 200.672V164.781C2.8418 163.534 3.50462 162.382 4.58199 161.755L35.3724 143.845C36.4603 143.212 37.8041 143.212 38.892 143.845L69.6824 161.755Z" fill="url(#paint53_linear_111_16293)" stroke="#07BC93"/>
<path opacity="0.2" d="M75.3406 162.512C76.418 163.139 77.0808 164.291 77.0808 165.538V201.429C77.0808 202.675 76.418 203.828 75.3406 204.454L44.5502 222.364C43.4623 222.997 42.1185 222.997 41.0306 222.364L10.2402 204.454C9.16282 203.828 8.5 202.675 8.5 201.429V165.538C8.5 164.291 9.16282 163.139 10.2402 162.512L41.0306 144.602C42.1185 143.969 43.4623 143.969 44.5502 144.602L75.3406 162.512Z" fill="url(#paint54_linear_111_16293)" stroke="#FD2F70"/>
<path opacity="0.11" d="M223.315 162.48L188.525 142.243L153.734 162.48V202.973L188.525 223.21L223.315 202.973V162.48Z" fill="url(#paint55_linear_111_16293)"/>
<path opacity="0.47" d="M299.001 162.48L264.21 142.243L229.42 162.48V202.973L264.21 223.21L299.001 202.973V162.48Z" fill="url(#paint56_linear_111_16293)"/>
<path opacity="0.49" d="M109.766 96.7584L74.9759 76.5216L40.1855 96.7584V137.251L74.9759 157.488L109.766 137.251V96.7584Z" fill="url(#paint57_linear_111_16293)"/>
<path opacity="0.57" d="M185.471 96.7584L150.661 76.5216L115.871 96.7584V137.251L150.661 157.488L185.471 137.251V96.7584Z" fill="url(#paint58_linear_111_16293)"/>
<path opacity="0.44" d="M261.159 96.7584L226.369 76.5216L191.578 96.7584V137.251L226.369 157.488L261.159 137.251V96.7584Z" fill="url(#paint59_linear_111_16293)"/>
<path opacity="0.66" d="M336.864 96.7584L302.054 76.5216L267.264 96.7584V137.251L302.054 157.488L336.864 137.251V96.7584Z" fill="url(#paint60_linear_111_16293)"/>
<path opacity="0.5" d="M410.341 96.5122C411.418 97.1388 412.081 98.2912 412.081 99.5376V135.429C412.081 136.675 411.418 137.828 410.341 138.454L379.55 156.364C378.462 156.997 377.118 156.997 376.031 156.364L345.24 138.454C344.163 137.828 343.5 136.675 343.5 135.429V99.5376C343.5 98.2912 344.163 97.1388 345.24 96.5122L376.031 78.6021C377.118 77.9693 378.462 77.9693 379.55 78.6021L410.341 96.5122Z" fill="url(#paint61_linear_111_16293)" stroke="#07BC93"/>
<path opacity="0.2" d="M407.341 101.512C408.418 102.139 409.081 103.291 409.081 104.538V140.429C409.081 141.675 408.418 142.828 407.341 143.454L376.55 161.364C375.462 161.997 374.118 161.997 373.031 161.364L342.24 143.454C341.163 142.828 340.5 141.675 340.5 140.429V104.538C340.5 103.291 341.163 102.139 342.24 101.512L373.031 83.6021C374.118 82.9693 375.462 82.9693 376.55 83.6021L407.341 101.512Z" fill="url(#paint62_linear_111_16293)" stroke="#07BC93"/>
<path opacity="0.42" d="M488.237 96.7584L453.447 76.5216L418.656 96.7584V137.251L453.447 157.488L488.237 137.251V96.7584Z" fill="url(#paint63_linear_111_16293)"/>
<path opacity="0.23" d="M563.942 96.7584L529.151 76.5216L494.342 96.7584V137.251L529.151 157.488L563.942 137.251V96.7584Z" fill="url(#paint64_linear_111_16293)"/>
<path opacity="0.43" d="M71.9226 31.0369L37.1322 10.8L2.3418 31.0369V71.5105L37.1322 91.7664L71.9226 71.5105V31.0369Z" fill="url(#paint65_linear_111_16293)"/>
<path opacity="0.49" d="M147.61 31.0369L112.82 10.8L78.0293 31.0369V71.5105L112.82 91.7664L147.61 71.5105V31.0369Z" fill="url(#paint66_linear_111_16293)"/>
<path opacity="0.23" d="M223.315 31.0369L188.525 10.8L153.734 31.0369V71.5105L188.525 91.7664L223.315 71.5105V31.0369Z" fill="url(#paint67_linear_111_16293)"/>
<path opacity="0.63" d="M229 71.7104L263.79 91.9664L298.6 71.7104V31.2368L263.79 11L229 31.2368V71.7104Z" fill="url(#paint68_linear_111_16293)"/>
<path opacity="0.93" d="M374.707 31.0369L339.917 10.8L305.107 31.0369V71.5105L339.917 91.7664L374.707 71.5105V31.0369Z" fill="url(#paint69_linear_111_16293)"/>
<path opacity="0.5" d="M450.393 31.0369L415.603 10.8L380.812 31.0369V71.5105L415.603 91.7664L450.393 71.5105V31.0369Z" fill="url(#paint70_linear_111_16293)"/>
<path opacity="0.28" d="M0 25.6225L34.08 5.78885V-34.6847L0 -54.4991V25.6225Z" fill="url(#paint71_linear_111_16293)"/>
<path opacity="0.99" d="M185.471 -34.6848L150.661 -54.9216L115.871 -34.6848V5.78876L150.661 26.0448L185.471 5.78876V-34.6848Z" fill="url(#paint72_linear_111_16293)"/>
<path opacity="0.98" d="M261.159 -34.6848L226.369 -54.9216L191.578 -34.6848V5.78876L226.369 26.0448L261.159 5.78876V-34.6848Z" fill="url(#paint73_linear_111_16293)"/>
<path opacity="0.99" d="M336.864 -34.6848L302.054 -54.9216L267.264 -34.6848V5.78876L302.054 26.0448L336.864 5.78876V-34.6848Z" fill="url(#paint74_linear_111_16293)"/>
<path opacity="0.85" d="M412.55 -34.6848L377.759 -54.9216L342.969 -34.6848V5.78876L377.759 26.0448L412.55 5.78876V-34.6848Z" fill="url(#paint75_linear_111_16293)"/>
<defs>
<linearGradient id="paint0_linear_111_16293" x1="9.61226" y1="736.029" x2="64.6462" y2="680.995" gradientUnits="userSpaceOnUse">
<stop stop-color="white"/>
<stop offset="0.4365" stop-color="#FCFCFC"/>
<stop offset="0.7633" stop-color="#F2F3F3"/>
<stop offset="1" stop-color="#E6E7E8"/>
</linearGradient>
<linearGradient id="paint1_linear_111_16293" x1="85.3076" y1="736.029" x2="140.342" y2="680.995" gradientUnits="userSpaceOnUse">
<stop stop-color="white"/>
<stop offset="0.4365" stop-color="#FCFCFC"/>
<stop offset="0.7633" stop-color="#F2F3F3"/>
<stop offset="1" stop-color="#E6E7E8"/>
</linearGradient>
<linearGradient id="paint2_linear_111_16293" x1="161.002" y1="736.029" x2="216.036" y2="680.995" gradientUnits="userSpaceOnUse">
<stop stop-color="white"/>
<stop offset="0.4365" stop-color="#FCFCFC"/>
<stop offset="0.7633" stop-color="#F2F3F3"/>
<stop offset="1" stop-color="#E6E7E8"/>
</linearGradient>
<linearGradient id="paint3_linear_111_16293" x1="236.696" y1="736.029" x2="291.73" y2="680.995" gradientUnits="userSpaceOnUse">
<stop stop-color="white"/>
<stop offset="0.4365" stop-color="#FCFCFC"/>
<stop offset="0.7633" stop-color="#F2F3F3"/>
<stop offset="1" stop-color="#E6E7E8"/>
</linearGradient>
<linearGradient id="paint4_linear_111_16293" x1="312.391" y1="736.029" x2="367.425" y2="680.995" gradientUnits="userSpaceOnUse">
<stop stop-color="white"/>
<stop offset="0.4365" stop-color="#FCFCFC"/>
<stop offset="0.7633" stop-color="#F2F3F3"/>
<stop offset="1" stop-color="#E6E7E8"/>
</linearGradient>
<linearGradient id="paint5_linear_111_16293" x1="388.086" y1="736.029" x2="443.12" y2="680.995" gradientUnits="userSpaceOnUse">
<stop stop-color="white"/>
<stop offset="0.4365" stop-color="#FCFCFC"/>
<stop offset="0.7633" stop-color="#F2F3F3"/>
<stop offset="1" stop-color="#E6E7E8"/>
</linearGradient>
<linearGradient id="paint6_linear_111_16293" x1="463.782" y1="736.029" x2="518.815" y2="680.996" gradientUnits="userSpaceOnUse">
<stop stop-color="white"/>
<stop offset="0.4365" stop-color="#FCFCFC"/>
<stop offset="0.7633" stop-color="#F2F3F3"/>
<stop offset="1" stop-color="#E6E7E8"/>
</linearGradient>
<linearGradient id="paint7_linear_111_16293" x1="-24.4251" y1="674.34" x2="30.7211" y2="619.193" gradientUnits="userSpaceOnUse">
<stop stop-color="white"/>
<stop offset="0.4365" stop-color="#FCFCFC"/>
<stop offset="0.7633" stop-color="#F2F3F3"/>
<stop offset="1" stop-color="#E6E7E8"/>
</linearGradient>
<linearGradient id="paint8_linear_111_16293" x1="47.46" y1="670.305" x2="102.494" y2="615.271" gradientUnits="userSpaceOnUse">
<stop stop-color="white"/>
<stop offset="0.4365" stop-color="#FCFCFC"/>
<stop offset="0.7633" stop-color="#F2F3F3"/>
<stop offset="1" stop-color="#E6E7E8"/>
</linearGradient>
<linearGradient id="paint9_linear_111_16293" x1="123.154" y1="670.305" x2="178.188" y2="615.271" gradientUnits="userSpaceOnUse">
<stop stop-color="white"/>
<stop offset="0.4365" stop-color="#FCFCFC"/>
<stop offset="0.7633" stop-color="#F2F3F3"/>
<stop offset="1" stop-color="#E6E7E8"/>
</linearGradient>
<linearGradient id="paint10_linear_111_16293" x1="198.85" y1="670.305" x2="253.883" y2="615.271" gradientUnits="userSpaceOnUse">
<stop stop-color="white"/>
<stop offset="0.4365" stop-color="#FCFCFC"/>
<stop offset="0.7633" stop-color="#F2F3F3"/>
<stop offset="1" stop-color="#E6E7E8"/>
</linearGradient>
<linearGradient id="paint11_linear_111_16293" x1="274.544" y1="670.305" x2="329.577" y2="615.271" gradientUnits="userSpaceOnUse">
<stop stop-color="white"/>
<stop offset="0.4365" stop-color="#FCFCFC"/>
<stop offset="0.7633" stop-color="#F2F3F3"/>
<stop offset="1" stop-color="#E6E7E8"/>
</linearGradient>
<linearGradient id="paint12_linear_111_16293" x1="350.238" y1="670.305" x2="405.272" y2="615.271" gradientUnits="userSpaceOnUse">
<stop stop-color="white"/>
<stop offset="0.4365" stop-color="#FCFCFC"/>
<stop offset="0.7633" stop-color="#F2F3F3"/>
<stop offset="1" stop-color="#E6E7E8"/>
</linearGradient>
<linearGradient id="paint13_linear_111_16293" x1="501.628" y1="670.305" x2="556.662" y2="615.271" gradientUnits="userSpaceOnUse">
<stop stop-color="white"/>
<stop offset="0.4365" stop-color="#FCFCFC"/>
<stop offset="0.7633" stop-color="#F2F3F3"/>
<stop offset="1" stop-color="#E6E7E8"/>
</linearGradient>
<linearGradient id="paint14_linear_111_16293" x1="9.61265" y1="604.582" x2="64.646" y2="549.548" gradientUnits="userSpaceOnUse">
<stop stop-color="white"/>
<stop offset="0.4365" stop-color="#FCFCFC"/>
<stop offset="0.7633" stop-color="#F2F3F3"/>
<stop offset="1" stop-color="#E6E7E8"/>
</linearGradient>
<linearGradient id="paint15_linear_111_16293" x1="85.3078" y1="604.582" x2="140.341" y2="549.548" gradientUnits="userSpaceOnUse">
<stop stop-color="white"/>
<stop offset="0.4365" stop-color="#FCFCFC"/>
<stop offset="0.7633" stop-color="#F2F3F3"/>
<stop offset="1" stop-color="#E6E7E8"/>
</linearGradient>
<linearGradient id="paint16_linear_111_16293" x1="161.002" y1="604.582" x2="216.036" y2="549.548" gradientUnits="userSpaceOnUse">
<stop stop-color="white"/>
<stop offset="0.4365" stop-color="#FCFCFC"/>
<stop offset="0.7633" stop-color="#F2F3F3"/>
<stop offset="1" stop-color="#E6E7E8"/>
</linearGradient>
<linearGradient id="paint17_linear_111_16293" x1="236.696" y1="604.582" x2="291.73" y2="549.548" gradientUnits="userSpaceOnUse">
<stop stop-color="white"/>
<stop offset="0.4365" stop-color="#FCFCFC"/>
<stop offset="0.7633" stop-color="#F2F3F3"/>
<stop offset="1" stop-color="#E6E7E8"/>
</linearGradient>
<linearGradient id="paint18_linear_111_16293" x1="312.392" y1="604.582" x2="367.425" y2="549.548" gradientUnits="userSpaceOnUse">
<stop stop-color="white"/>
<stop offset="0.4365" stop-color="#FCFCFC"/>
<stop offset="0.7633" stop-color="#F2F3F3"/>
<stop offset="1" stop-color="#E6E7E8"/>
</linearGradient>
<linearGradient id="paint19_linear_111_16293" x1="388.086" y1="604.582" x2="443.119" y2="549.548" gradientUnits="userSpaceOnUse">
<stop stop-color="white"/>
<stop offset="0.4365" stop-color="#FCFCFC"/>
<stop offset="0.7633" stop-color="#F2F3F3"/>
<stop offset="1" stop-color="#E6E7E8"/>
</linearGradient>
<linearGradient id="paint20_linear_111_16293" x1="-24.4253" y1="542.893" x2="30.7212" y2="487.747" gradientUnits="userSpaceOnUse">
<stop stop-color="white"/>
<stop offset="0.4365" stop-color="#FCFCFC"/>
<stop offset="0.7633" stop-color="#F2F3F3"/>
<stop offset="1" stop-color="#E6E7E8"/>
</linearGradient>
<linearGradient id="paint21_linear_111_16293" x1="40.1855" y1="551.818" x2="114.652" y2="475.626" gradientUnits="userSpaceOnUse">
<stop stop-color="white" stop-opacity="0"/>
<stop offset="1" stop-color="#FD2F70" stop-opacity="0.32"/>
</linearGradient>
<linearGradient id="paint22_linear_111_16293" x1="123.154" y1="538.859" x2="178.188" y2="483.825" gradientUnits="userSpaceOnUse">
<stop stop-color="white"/>
<stop offset="0.4365" stop-color="#FCFCFC"/>
<stop offset="0.7633" stop-color="#F2F3F3"/>
<stop offset="1" stop-color="#E6E7E8"/>
</linearGradient>
<linearGradient id="paint23_linear_111_16293" x1="198.85" y1="538.859" x2="253.883" y2="483.825" gradientUnits="userSpaceOnUse">
<stop stop-color="white"/>
<stop offset="0.4365" stop-color="#FCFCFC"/>
<stop offset="0.7633" stop-color="#F2F3F3"/>
<stop offset="1" stop-color="#E6E7E8"/>
</linearGradient>
<linearGradient id="paint24_linear_111_16293" x1="274.544" y1="538.859" x2="329.577" y2="483.825" gradientUnits="userSpaceOnUse">
<stop stop-color="white"/>
<stop offset="0.4365" stop-color="#FCFCFC"/>
<stop offset="0.7633" stop-color="#F2F3F3"/>
<stop offset="1" stop-color="#E6E7E8"/>
</linearGradient>
<linearGradient id="paint25_linear_111_16293" x1="350.238" y1="538.859" x2="405.272" y2="483.825" gradientUnits="userSpaceOnUse">
<stop stop-color="white"/>
<stop offset="0.4365" stop-color="#FCFCFC"/>
<stop offset="0.7633" stop-color="#F2F3F3"/>
<stop offset="1" stop-color="#E6E7E8"/>
</linearGradient>
<linearGradient id="paint26_linear_111_16293" x1="425.933" y1="538.859" x2="480.967" y2="483.825" gradientUnits="userSpaceOnUse">
<stop stop-color="white"/>
<stop offset="0.4365" stop-color="#FCFCFC"/>
<stop offset="0.7633" stop-color="#F2F3F3"/>
<stop offset="1" stop-color="#E6E7E8"/>
</linearGradient>
<linearGradient id="paint27_linear_111_16293" x1="501.628" y1="538.859" x2="556.662" y2="483.825" gradientUnits="userSpaceOnUse">
<stop stop-color="white"/>
<stop offset="0.4365" stop-color="#FCFCFC"/>
<stop offset="0.7633" stop-color="#F2F3F3"/>
<stop offset="1" stop-color="#E6E7E8"/>
</linearGradient>
<linearGradient id="paint28_linear_111_16293" x1="85.3076" y1="473.136" x2="140.342" y2="418.102" gradientUnits="userSpaceOnUse">
<stop stop-color="white"/>
<stop offset="0.4365" stop-color="#FCFCFC"/>
<stop offset="0.7633" stop-color="#F2F3F3"/>
<stop offset="1" stop-color="#E6E7E8"/>
</linearGradient>
<linearGradient id="paint29_linear_111_16293" x1="161.002" y1="473.136" x2="216.036" y2="418.102" gradientUnits="userSpaceOnUse">
<stop stop-color="white"/>
<stop offset="0.4365" stop-color="#FCFCFC"/>
<stop offset="0.7633" stop-color="#F2F3F3"/>
<stop offset="1" stop-color="#E6E7E8"/>
</linearGradient>
<linearGradient id="paint30_linear_111_16293" x1="236.696" y1="473.136" x2="291.73" y2="418.102" gradientUnits="userSpaceOnUse">
<stop stop-color="white"/>
<stop offset="0.4365" stop-color="#FCFCFC"/>
<stop offset="0.7633" stop-color="#F2F3F3"/>
<stop offset="1" stop-color="#E6E7E8"/>
</linearGradient>
<linearGradient id="paint31_linear_111_16293" x1="312.391" y1="473.136" x2="367.425" y2="418.102" gradientUnits="userSpaceOnUse">
<stop stop-color="white"/>
<stop offset="0.4365" stop-color="#FCFCFC"/>
<stop offset="0.7633" stop-color="#F2F3F3"/>
<stop offset="1" stop-color="#E6E7E8"/>
</linearGradient>
<linearGradient id="paint32_linear_111_16293" x1="-24.4253" y1="411.447" x2="30.7212" y2="356.301" gradientUnits="userSpaceOnUse">
<stop stop-color="white"/>
<stop offset="0.4365" stop-color="#FCFCFC"/>
<stop offset="0.7633" stop-color="#F2F3F3"/>
<stop offset="1" stop-color="#E6E7E8"/>
</linearGradient>
<linearGradient id="paint33_linear_111_16293" x1="47.46" y1="407.413" x2="102.494" y2="352.379" gradientUnits="userSpaceOnUse">
<stop stop-color="white"/>
<stop offset="0.4365" stop-color="#FCFCFC"/>
<stop offset="0.7633" stop-color="#F2F3F3"/>
<stop offset="1" stop-color="#E6E7E8"/>
</linearGradient>
<linearGradient id="paint34_linear_111_16293" x1="115" y1="419.966" x2="189.466" y2="343.754" gradientUnits="userSpaceOnUse">
<stop stop-color="white" stop-opacity="0"/>
<stop offset="1" stop-color="#FD2F70" stop-opacity="0.32"/>
</linearGradient>
<linearGradient id="paint35_linear_111_16293" x1="198.85" y1="407.413" x2="253.883" y2="352.379" gradientUnits="userSpaceOnUse">
<stop stop-color="white"/>
<stop offset="0.4365" stop-color="#FCFCFC"/>
<stop offset="0.7633" stop-color="#F2F3F3"/>
<stop offset="1" stop-color="#E6E7E8"/>
</linearGradient>
<linearGradient id="paint36_linear_111_16293" x1="274.28" y1="407.005" x2="329.314" y2="351.971" gradientUnits="userSpaceOnUse">
<stop stop-color="white"/>
<stop offset="0.4365" stop-color="#FCFCFC"/>
<stop offset="0.7633" stop-color="#F2F3F3"/>
<stop offset="1" stop-color="#E6E7E8"/>
</linearGradient>
<linearGradient id="paint37_linear_111_16293" x1="402.5" y1="357" x2="360.5" y2="408.5" gradientUnits="userSpaceOnUse">
<stop stop-color="#36DBB6" stop-opacity="0.29"/>
<stop offset="1" stop-color="#36DBB6" stop-opacity="0"/>
</linearGradient>
<linearGradient id="paint38_linear_111_16293" x1="425.933" y1="407.413" x2="480.967" y2="352.379" gradientUnits="userSpaceOnUse">
<stop stop-color="white"/>
<stop offset="0.4365" stop-color="#FCFCFC"/>
<stop offset="0.7633" stop-color="#F2F3F3"/>
<stop offset="1" stop-color="#E6E7E8"/>
</linearGradient>
<linearGradient id="paint39_linear_111_16293" x1="61.8731" y1="291.278" x2="19.8731" y2="342.778" gradientUnits="userSpaceOnUse">
<stop stop-color="#36DBB6" stop-opacity="0.29"/>
<stop offset="1" stop-color="#36DBB6" stop-opacity="0"/>
</linearGradient>
<linearGradient id="paint40_linear_111_16293" x1="85.3076" y1="341.689" x2="140.342" y2="286.655" gradientUnits="userSpaceOnUse">
<stop stop-color="white"/>
<stop offset="0.4365" stop-color="#FCFCFC"/>
<stop offset="0.7633" stop-color="#F2F3F3"/>
<stop offset="1" stop-color="#E6E7E8"/>
</linearGradient>
<linearGradient id="paint41_linear_111_16293" x1="161.002" y1="341.689" x2="216.036" y2="286.655" gradientUnits="userSpaceOnUse">
<stop stop-color="white"/>
<stop offset="0.4365" stop-color="#FCFCFC"/>
<stop offset="0.7633" stop-color="#F2F3F3"/>
<stop offset="1" stop-color="#E6E7E8"/>
</linearGradient>
<linearGradient id="paint42_linear_111_16293" x1="159.268" y1="346.003" x2="214.302" y2="290.969" gradientUnits="userSpaceOnUse">
<stop stop-color="white"/>
<stop offset="0.4365" stop-color="#FCFCFC"/>
<stop offset="0.7633" stop-color="#F2F3F3"/>
<stop offset="1" stop-color="#E6E7E8"/>
</linearGradient>
<linearGradient id="paint43_linear_111_16293" x1="236.696" y1="341.689" x2="291.73" y2="286.655" gradientUnits="userSpaceOnUse">
<stop stop-color="white"/>
<stop offset="0.4365" stop-color="#FCFCFC"/>
<stop offset="0.7633" stop-color="#F2F3F3"/>
<stop offset="1" stop-color="#E6E7E8"/>
</linearGradient>
<linearGradient id="paint44_linear_111_16293" x1="312.391" y1="341.689" x2="367.425" y2="286.655" gradientUnits="userSpaceOnUse">
<stop stop-color="white"/>
<stop offset="0.4365" stop-color="#FCFCFC"/>
<stop offset="0.7633" stop-color="#F2F3F3"/>
<stop offset="1" stop-color="#E6E7E8"/>
</linearGradient>
<linearGradient id="paint45_linear_111_16293" x1="388.086" y1="341.689" x2="443.12" y2="286.655" gradientUnits="userSpaceOnUse">
<stop stop-color="white"/>
<stop offset="0.4365" stop-color="#FCFCFC"/>
<stop offset="0.7633" stop-color="#F2F3F3"/>
<stop offset="1" stop-color="#E6E7E8"/>
</linearGradient>
<linearGradient id="paint46_linear_111_16293" x1="-24.4253" y1="280.001" x2="30.7213" y2="224.855" gradientUnits="userSpaceOnUse">
<stop stop-color="white"/>
<stop offset="0.4365" stop-color="#FCFCFC"/>
<stop offset="0.7633" stop-color="#F2F3F3"/>
<stop offset="1" stop-color="#E6E7E8"/>
</linearGradient>
<linearGradient id="paint47_linear_111_16293" x1="47.46" y1="275.966" x2="102.494" y2="220.933" gradientUnits="userSpaceOnUse">
<stop stop-color="white"/>
<stop offset="0.4365" stop-color="#FCFCFC"/>
<stop offset="0.7633" stop-color="#F2F3F3"/>
<stop offset="1" stop-color="#E6E7E8"/>
</linearGradient>
<linearGradient id="paint48_linear_111_16293" x1="123.154" y1="275.966" x2="178.188" y2="220.933" gradientUnits="userSpaceOnUse">
<stop stop-color="white"/>
<stop offset="0.4365" stop-color="#FCFCFC"/>
<stop offset="0.7633" stop-color="#F2F3F3"/>
<stop offset="1" stop-color="#E6E7E8"/>
</linearGradient>
<linearGradient id="paint49_linear_111_16293" x1="198.85" y1="275.966" x2="253.883" y2="220.933" gradientUnits="userSpaceOnUse">
<stop stop-color="white"/>
<stop offset="0.4365" stop-color="#FCFCFC"/>
<stop offset="0.7633" stop-color="#F2F3F3"/>
<stop offset="1" stop-color="#E6E7E8"/>
</linearGradient>
<linearGradient id="paint50_linear_111_16293" x1="274.544" y1="275.966" x2="329.577" y2="220.933" gradientUnits="userSpaceOnUse">
<stop stop-color="white"/>
<stop offset="0.4365" stop-color="#FCFCFC"/>
<stop offset="0.7633" stop-color="#F2F3F3"/>
<stop offset="1" stop-color="#E6E7E8"/>
</linearGradient>
<linearGradient id="paint51_linear_111_16293" x1="350.238" y1="275.966" x2="405.272" y2="220.933" gradientUnits="userSpaceOnUse">
<stop stop-color="white"/>
<stop offset="0.4365" stop-color="#FCFCFC"/>
<stop offset="0.7633" stop-color="#F2F3F3"/>
<stop offset="1" stop-color="#E6E7E8"/>
</linearGradient>
<linearGradient id="paint52_linear_111_16293" x1="425.933" y1="275.966" x2="480.967" y2="220.933" gradientUnits="userSpaceOnUse">
<stop stop-color="white"/>
<stop offset="0.4365" stop-color="#FCFCFC"/>
<stop offset="0.7633" stop-color="#F2F3F3"/>
<stop offset="1" stop-color="#E6E7E8"/>
</linearGradient>
<linearGradient id="paint53_linear_111_16293" x1="9.61226" y1="210.243" x2="64.6462" y2="155.209" gradientUnits="userSpaceOnUse">
<stop stop-color="white"/>
<stop offset="0.4365" stop-color="#FCFCFC"/>
<stop offset="0.7633" stop-color="#F2F3F3"/>
<stop offset="1" stop-color="#E6E7E8"/>
</linearGradient>
<linearGradient id="paint54_linear_111_16293" x1="15.2705" y1="211" x2="70.3044" y2="155.966" gradientUnits="userSpaceOnUse">
<stop stop-color="white"/>
<stop offset="0.4365" stop-color="#FCFCFC"/>
<stop offset="0.7633" stop-color="#F2F3F3"/>
<stop offset="1" stop-color="#E6E7E8"/>
</linearGradient>
<linearGradient id="paint55_linear_111_16293" x1="161.002" y1="210.243" x2="216.036" y2="155.21" gradientUnits="userSpaceOnUse">
<stop stop-color="white"/>
<stop offset="0.4365" stop-color="#FCFCFC"/>
<stop offset="0.7633" stop-color="#F2F3F3"/>
<stop offset="1" stop-color="#E6E7E8"/>
</linearGradient>
<linearGradient id="paint56_linear_111_16293" x1="229.42" y1="223.21" x2="303.886" y2="147.018" gradientUnits="userSpaceOnUse">
<stop stop-color="white" stop-opacity="0"/>
<stop offset="1" stop-color="#FD2F70" stop-opacity="0.32"/>
</linearGradient>
<linearGradient id="paint57_linear_111_16293" x1="47.46" y1="144.52" x2="102.494" y2="89.4858" gradientUnits="userSpaceOnUse">
<stop stop-color="white"/>
<stop offset="0.4365" stop-color="#FCFCFC"/>
<stop offset="0.7633" stop-color="#F2F3F3"/>
<stop offset="1" stop-color="#E6E7E8"/>
</linearGradient>
<linearGradient id="paint58_linear_111_16293" x1="123.154" y1="144.52" x2="178.188" y2="89.4858" gradientUnits="userSpaceOnUse">
<stop stop-color="white"/>
<stop offset="0.4365" stop-color="#FCFCFC"/>
<stop offset="0.7633" stop-color="#F2F3F3"/>
<stop offset="1" stop-color="#E6E7E8"/>
</linearGradient>
<linearGradient id="paint59_linear_111_16293" x1="198.85" y1="144.52" x2="253.883" y2="89.4858" gradientUnits="userSpaceOnUse">
<stop stop-color="white"/>
<stop offset="0.4365" stop-color="#FCFCFC"/>
<stop offset="0.7633" stop-color="#F2F3F3"/>
<stop offset="1" stop-color="#E6E7E8"/>
</linearGradient>
<linearGradient id="paint60_linear_111_16293" x1="274.544" y1="144.52" x2="329.577" y2="89.4858" gradientUnits="userSpaceOnUse">
<stop stop-color="white"/>
<stop offset="0.4365" stop-color="#FCFCFC"/>
<stop offset="0.7633" stop-color="#F2F3F3"/>
<stop offset="1" stop-color="#E6E7E8"/>
</linearGradient>
<linearGradient id="paint61_linear_111_16293" x1="350.27" y1="144.998" x2="405.303" y2="89.9642" gradientUnits="userSpaceOnUse">
<stop stop-color="white"/>
<stop offset="0.4365" stop-color="#FCFCFC"/>
<stop offset="0.7633" stop-color="#F2F3F3"/>
<stop offset="1" stop-color="#E6E7E8"/>
</linearGradient>
<linearGradient id="paint62_linear_111_16293" x1="347.27" y1="149.998" x2="402.303" y2="94.9642" gradientUnits="userSpaceOnUse">
<stop stop-color="white"/>
<stop offset="0.4365" stop-color="#FCFCFC"/>
<stop offset="0.7633" stop-color="#F2F3F3"/>
<stop offset="1" stop-color="#E6E7E8"/>
</linearGradient>
<linearGradient id="paint63_linear_111_16293" x1="425.933" y1="144.52" x2="480.967" y2="89.486" gradientUnits="userSpaceOnUse">
<stop stop-color="white"/>
<stop offset="0.4365" stop-color="#FCFCFC"/>
<stop offset="0.7633" stop-color="#F2F3F3"/>
<stop offset="1" stop-color="#E6E7E8"/>
</linearGradient>
<linearGradient id="paint64_linear_111_16293" x1="501.628" y1="144.52" x2="556.662" y2="89.486" gradientUnits="userSpaceOnUse">
<stop stop-color="white"/>
<stop offset="0.4365" stop-color="#FCFCFC"/>
<stop offset="0.7633" stop-color="#F2F3F3"/>
<stop offset="1" stop-color="#E6E7E8"/>
</linearGradient>
<linearGradient id="paint65_linear_111_16293" x1="9.61226" y1="78.797" x2="64.6462" y2="23.7629" gradientUnits="userSpaceOnUse">
<stop stop-color="white"/>
<stop offset="0.4365" stop-color="#FCFCFC"/>
<stop offset="0.7633" stop-color="#F2F3F3"/>
<stop offset="1" stop-color="#E6E7E8"/>
</linearGradient>
<linearGradient id="paint66_linear_111_16293" x1="85.3076" y1="78.797" x2="140.342" y2="23.7631" gradientUnits="userSpaceOnUse">
<stop stop-color="white"/>
<stop offset="0.4365" stop-color="#FCFCFC"/>
<stop offset="0.7633" stop-color="#F2F3F3"/>
<stop offset="1" stop-color="#E6E7E8"/>
</linearGradient>
<linearGradient id="paint67_linear_111_16293" x1="161.002" y1="78.7968" x2="216.036" y2="23.7631" gradientUnits="userSpaceOnUse">
<stop stop-color="white"/>
<stop offset="0.4365" stop-color="#FCFCFC"/>
<stop offset="0.7633" stop-color="#F2F3F3"/>
<stop offset="1" stop-color="#E6E7E8"/>
</linearGradient>
<linearGradient id="paint68_linear_111_16293" x1="288.548" y1="28.592" x2="246.55" y2="80.1034" gradientUnits="userSpaceOnUse">
<stop stop-color="#36DBB6" stop-opacity="0.29"/>
<stop offset="1" stop-color="#36DBB6" stop-opacity="0"/>
</linearGradient>
<linearGradient id="paint69_linear_111_16293" x1="312.391" y1="78.7968" x2="367.425" y2="23.7629" gradientUnits="userSpaceOnUse">
<stop stop-color="white"/>
<stop offset="0.4365" stop-color="#FCFCFC"/>
<stop offset="0.7633" stop-color="#F2F3F3"/>
<stop offset="1" stop-color="#E6E7E8"/>
</linearGradient>
<linearGradient id="paint70_linear_111_16293" x1="440.344" y1="28.3921" x2="398.344" y2="79.8921" gradientUnits="userSpaceOnUse">
<stop stop-color="#36DBB6" stop-opacity="0.29"/>
<stop offset="1" stop-color="#36DBB6" stop-opacity="0"/>
</linearGradient>
<linearGradient id="paint71_linear_111_16293" x1="-24.4251" y1="17.1088" x2="30.7213" y2="-38.0376" gradientUnits="userSpaceOnUse">
<stop stop-color="white"/>
<stop offset="0.4365" stop-color="#FCFCFC"/>
<stop offset="0.7633" stop-color="#F2F3F3"/>
<stop offset="1" stop-color="#E6E7E8"/>
</linearGradient>
<linearGradient id="paint72_linear_111_16293" x1="123.154" y1="13.0742" x2="178.188" y2="-41.9597" gradientUnits="userSpaceOnUse">
<stop stop-color="white"/>
<stop offset="0.4365" stop-color="#FCFCFC"/>
<stop offset="0.7633" stop-color="#F2F3F3"/>
<stop offset="1" stop-color="#E6E7E8"/>
</linearGradient>
<linearGradient id="paint73_linear_111_16293" x1="198.85" y1="13.074" x2="253.883" y2="-41.9597" gradientUnits="userSpaceOnUse">
<stop stop-color="white"/>
<stop offset="0.4365" stop-color="#FCFCFC"/>
<stop offset="0.7633" stop-color="#F2F3F3"/>
<stop offset="1" stop-color="#E6E7E8"/>
</linearGradient>
<linearGradient id="paint74_linear_111_16293" x1="274.544" y1="13.074" x2="329.578" y2="-41.9597" gradientUnits="userSpaceOnUse">
<stop stop-color="white"/>
<stop offset="0.4365" stop-color="#FCFCFC"/>
<stop offset="0.7633" stop-color="#F2F3F3"/>
<stop offset="1" stop-color="#E6E7E8"/>
</linearGradient>
<linearGradient id="paint75_linear_111_16293" x1="350.238" y1="13.074" x2="405.272" y2="-41.9597" gradientUnits="userSpaceOnUse">
<stop stop-color="white"/>
<stop offset="0.4365" stop-color="#FCFCFC"/>
<stop offset="0.7633" stop-color="#F2F3F3"/>
<stop offset="1" stop-color="#E6E7E8"/>
</linearGradient>
</defs>
</svg>
