<svg width="169" height="169" viewBox="0 0 169 169" fill="none" xmlns="http://www.w3.org/2000/svg">
<path fill-rule="evenodd" clip-rule="evenodd" d="M21.9922 1C21.9922 0.447717 22.4399 0 22.9922 0H147.726C148.279 0 148.726 0.447715 148.726 1V125.735C148.726 126.287 148.279 126.735 147.726 126.735H22.9922C22.4399 126.735 21.9922 126.287 21.9922 125.735V1ZM47.9668 59.3865L48.0096 30.3793C55.6078 29.8767 76.4514 30.3784 85.7976 30.3128C99.6293 30.2163 109.133 28.8361 115.607 38.3717C121.971 47.7461 118.188 59.4667 110.123 64.4211C105.975 66.9693 103.146 67.1405 98.5141 67.1741C96.2308 67.1914 96.2727 67.3462 95.0782 66.078C93.19 64.076 86.6315 57.9654 85.6838 56.4214C86.413 54.9684 93.8537 48.7758 94.8925 46.7064L64.5188 46.7237L64.5152 77.0903C65.9208 76.4657 74.1599 67.5602 74.2592 67.4272C76.5789 69.7369 88.9203 81.8526 90.6436 83.494C88.3622 85.8046 82.5957 91.3763 80.5746 93.1917C77.0341 89.7367 51.023 62.4583 47.9668 59.3865ZM32.5829 113.885L60.0797 113.822C58.9035 112.566 33.8329 87.1876 32.6002 86.4319L32.5829 113.885ZM90.6436 83.494C92.4335 84.8624 94.3226 87.0301 95.9649 88.6843C97.7256 90.4577 99.2542 91.9908 101.029 93.7479L116.5 109.283C117.448 110.229 118.191 110.946 119.118 111.886C120.079 112.859 120.405 113.751 122.01 113.895L142.682 113.866C142.069 112.619 129.058 99.7912 126.654 97.4951L118.391 89.4381C116.462 87.4607 111.367 82.8395 110.496 81.2299L111.656 80.649C117.003 78.3667 120.95 76.6196 125.233 71.7034C133.838 61.8273 137 48.1422 131.536 35.5057C128.893 29.3951 125.399 25.4458 121.174 22.0299C109.987 12.9824 96.9828 14.9497 80.2496 14.9588C64.4114 14.967 48.4011 15.1864 32.5838 14.9452C32.7905 30.676 32.3899 46.6901 32.6129 62.298C32.6967 68.1182 31.4157 65.8959 38.0298 72.5264C48.5822 83.108 58.8242 93.6059 69.5042 104.077C69.0398 105.091 65.8525 108.031 64.8939 108.962C63.4063 110.404 61.2796 112.225 60.2336 113.882L90.6928 113.862L90.6436 83.494Z" fill="#FD2F70"/>
</svg>
