<svg width="20" height="20" viewBox="0 0 20 20" fill="none" xmlns="http://www.w3.org/2000/svg">
<g id="Icon">
<path id="Union" fill-rule="evenodd" clip-rule="evenodd" d="M5.14037 6.26094H5.1237C3.62369 6.21094 2.44869 4.99427 2.44035 3.49427C2.44035 1.96093 3.69036 0.710938 5.21537 0.710938C6.74038 0.710938 7.99038 1.96094 7.99038 3.48594C7.99038 4.99427 6.81537 6.21094 5.31537 6.26094H5.1987H5.14037ZM5.2237 5.01094H5.22378C5.27374 5.01094 5.31539 5.01094 5.36537 5.01927C6.10704 4.98594 6.75704 4.31927 6.75704 3.49427C6.75704 2.6526 6.07371 1.96927 5.23204 1.96927C4.39036 1.96927 3.70703 2.6526 3.70703 3.49427C3.70703 4.31093 4.34036 4.96927 5.1487 5.01927C5.15703 5.01094 5.19033 5.01094 5.22365 5.01094H5.2237ZM15.0986 6.26116H15.1653C15.1694 6.26116 15.1715 6.26116 15.1726 6.2622C15.1736 6.26324 15.1736 6.26532 15.1736 6.26949C16.6736 6.21949 17.8486 5.00282 17.857 3.49448C17.857 1.96948 16.607 0.719482 15.0819 0.719482C13.5569 0.719482 12.3069 1.96115 12.3069 3.49448C12.3069 4.99448 13.4819 6.21116 15.0569 6.26116H15.0986ZM13.5569 3.48616C13.5569 2.64449 14.2403 1.96115 15.0819 1.96115C15.932 1.96115 16.6153 2.64449 16.6153 3.48616C16.607 4.30282 15.982 4.96949 15.1736 5.01116C15.0986 5.00282 15.0319 5.00282 15.0236 5.01116C14.1986 4.97782 13.5569 4.31116 13.5569 3.48616ZM14.1988 12.3194C14.5238 12.3777 14.8488 12.4027 15.1738 12.4027C16.1988 12.4027 17.1821 12.1277 17.9404 11.6277C18.6821 11.1277 19.0988 10.4194 19.0988 9.67772C19.0988 8.92772 18.6738 8.22772 17.9404 7.73606C16.9404 7.06939 15.5321 6.81106 14.1738 7.05273C13.8321 7.11106 13.6071 7.43606 13.6654 7.77773C13.7238 8.11939 14.0488 8.35273 14.3904 8.28606C15.4238 8.10273 16.5238 8.29439 17.2488 8.77772C17.6321 9.03606 17.8488 9.35273 17.8488 9.67772C17.8488 10.0027 17.6404 10.3277 17.2488 10.5861C16.5238 11.0694 15.4404 11.2611 14.4154 11.0861C14.0738 11.0277 13.7488 11.2527 13.6904 11.5944C13.6321 11.9361 13.8571 12.2611 14.1988 12.3194ZM2.36537 11.6277C3.12371 12.1277 4.10704 12.4027 5.13205 12.4027C5.45705 12.4027 5.78205 12.3777 6.10705 12.3194C6.44872 12.2611 6.67372 11.9361 6.61539 11.5944C6.55706 11.2611 6.23205 11.0277 5.89039 11.0861C4.86538 11.2611 3.78204 11.0694 3.05704 10.5861C2.67371 10.3277 2.45704 10.0027 2.45704 9.67772C2.45704 9.35273 2.66537 9.03606 3.05704 8.77772C3.79038 8.29439 4.88205 8.10273 5.91539 8.28606C6.25706 8.35273 6.58206 8.11939 6.64039 7.77773C6.69872 7.43606 6.47372 7.11106 6.13205 7.05273C4.77371 6.81106 3.36537 7.06939 2.36537 7.73606C1.63203 8.22772 1.20703 8.93606 1.20703 9.67772C1.20703 10.4277 1.63203 11.1361 2.36537 11.6277ZM10.1653 12.4859H10.0986H10.0569C8.48192 12.4359 7.30691 11.2193 7.30691 9.71926C7.30691 8.18592 8.55692 6.94425 10.0819 6.94425C11.6069 6.94425 12.8569 8.19426 12.8569 9.71926C12.8486 11.2276 11.6736 12.4443 10.1736 12.4943C10.1736 12.4901 10.1736 12.488 10.1726 12.487C10.1715 12.4859 10.1694 12.4859 10.1653 12.4859ZM10.0819 8.18593C9.24026 8.18593 8.55692 8.86926 8.55692 9.71093C8.55692 10.5359 9.19859 11.2026 10.0236 11.2359C10.0319 11.2276 10.0986 11.2276 10.1736 11.2359C10.9819 11.1943 11.6069 10.5276 11.6153 9.71093C11.6153 8.87759 10.9319 8.18593 10.0819 8.18593ZM7.39021 17.8528C8.16522 18.3778 9.16522 18.6361 10.1652 18.6361C11.1652 18.6361 12.1652 18.3695 12.9402 17.8528C13.6819 17.3611 14.0986 16.6445 14.0986 15.9028C14.0986 15.1528 13.6736 14.4528 12.9402 13.9611C11.3902 12.9278 8.94855 12.9278 7.39021 13.9611C6.64854 14.4528 6.23187 15.1695 6.23187 15.9111C6.23187 16.6611 6.65688 17.3611 7.39021 17.8528ZM7.48188 15.9195C7.48188 15.5945 7.69022 15.2695 8.08188 15.0111C9.21522 14.2611 11.1236 14.2528 12.2402 15.0111C12.6236 15.2695 12.8402 15.5861 12.8402 15.9111C12.8402 16.2361 12.6319 16.5611 12.2402 16.8195C11.1152 17.5778 9.20689 17.5778 8.08188 16.8195C7.69855 16.5611 7.48188 16.2445 7.48188 15.9195Z" fill="#7D7D7D"/>
</g>
</svg>
