<svg width="320" height="496" viewBox="0 0 320 496" fill="none" xmlns="http://www.w3.org/2000/svg">
<g clip-path="url(#clip0_138_10860)">
<rect width="320" height="496" fill="white"/>
<path opacity="0.5" d="M-14.1173 167.908C-15.3583 167.836 -16.4681 167.112 -17.0327 166.004L-63.3247 75.212C-63.8894 74.1046 -63.8242 72.7807 -63.1535 71.734L-8.77131 -13.1387C-8.08881 -14.2038 -6.88466 -14.8178 -5.62173 -14.7445L95.0097 -8.90844C96.2507 -8.83646 97.3605 -8.11161 97.9251 -7.00413L144.217 83.7879C144.782 84.8953 144.717 86.2192 144.046 87.2659L89.6639 172.138C88.9814 173.203 87.7773 173.817 86.5143 173.744L-14.1173 167.908Z" stroke="#FD2F70"/>
<path opacity="0.5" d="M-3.67196 162.623C-4.91301 162.551 -6.02275 161.826 -6.58742 160.718L-52.8794 69.9264C-53.4441 68.8189 -53.3789 67.495 -52.7082 66.4483L1.67401 -18.4243C2.35651 -19.4895 3.56066 -20.1034 4.82359 -20.0302L105.455 -14.1941C106.696 -14.1221 107.806 -13.3973 108.37 -12.2898L154.662 78.5022C155.227 79.6097 155.162 80.9336 154.491 81.9803L100.109 166.853C99.4267 167.918 98.2226 168.532 96.9596 168.459L-3.67196 162.623Z" stroke="#36DBB6"/>
<path opacity="0.3" d="M-70.8418 356.857C-72.0828 356.785 -73.1926 356.06 -73.7572 354.952L-96.2329 310.871C-96.7975 309.764 -96.7324 308.44 -96.0617 307.393L-69.6838 266.226C-69.0013 265.161 -67.7972 264.547 -66.5342 264.62L-17.7234 267.451C-16.4823 267.523 -15.3726 268.248 -14.8079 269.355L7.66771 313.436C8.23238 314.544 8.16724 315.868 7.49657 316.914L-18.8812 358.081C-19.5637 359.147 -20.7679 359.761 -22.0308 359.687L-70.8418 356.857Z" stroke="#FD2F70"/>
<path opacity="0.3" d="M260.556 340.775C259.315 340.703 258.205 339.978 257.64 338.871L238.9 302.115C238.335 301.008 238.4 299.684 239.071 298.637L261.057 264.324C261.739 263.259 262.943 262.645 264.206 262.718L304.89 265.078C306.131 265.15 307.241 265.875 307.806 266.982L326.546 303.738C327.111 304.845 327.046 306.169 326.375 307.216L304.389 341.529C303.707 342.594 302.503 343.208 301.24 343.135L260.556 340.775Z" stroke="#FD2F70"/>
<path opacity="0.2" d="M85.6994 523.043C84.4584 522.971 83.3486 522.246 82.784 521.139L49.9475 456.737C49.3829 455.629 49.448 454.306 50.1187 453.259L88.6793 393.079C89.3618 392.013 90.5659 391.399 91.8289 391.473L163.183 395.611C164.424 395.683 165.534 396.408 166.099 397.515L198.935 461.917C199.5 463.024 199.435 464.348 198.764 465.395L160.203 525.575C159.521 526.64 158.317 527.254 157.054 527.181L85.6994 523.043Z" stroke="#07BC93"/>
<path fill-rule="evenodd" clip-rule="evenodd" d="M97.9922 164C97.9922 163.448 98.4399 163 98.9922 163H223.726C224.279 163 224.726 163.448 224.726 164V288.735C224.726 289.287 224.279 289.735 223.726 289.735H98.9922C98.4399 289.735 97.9922 289.287 97.9922 288.735V164ZM123.967 222.387L124.01 193.379C131.608 192.877 152.451 193.378 161.798 193.313C175.629 193.216 185.133 191.836 191.607 201.372C197.971 210.746 194.188 222.467 186.123 227.421C181.975 229.969 179.146 230.14 174.514 230.174C172.231 230.191 172.273 230.346 171.078 229.078C169.19 227.076 162.632 220.965 161.684 219.421C162.413 217.968 169.854 211.776 170.892 209.706L140.519 209.724L140.515 240.09C141.921 239.466 150.16 230.56 150.259 230.427C152.579 232.737 164.92 244.853 166.644 246.494C164.362 248.805 158.596 254.376 156.575 256.192C153.034 252.737 127.023 225.458 123.967 222.387ZM108.583 276.885L136.08 276.822C134.903 275.566 109.833 250.188 108.6 249.432L108.583 276.885ZM166.644 246.494C168.433 247.862 170.323 250.03 171.965 251.684C173.726 253.458 175.254 254.991 177.029 256.748L192.5 272.283C193.448 273.229 194.191 273.946 195.118 274.886C196.079 275.859 196.405 276.751 198.01 276.895L218.682 276.866C218.069 275.619 205.058 262.791 202.654 260.495L194.391 252.438C192.462 250.461 187.367 245.839 186.496 244.23L187.656 243.649C193.003 241.367 196.95 239.62 201.233 234.703C209.838 224.827 213 211.142 207.536 198.506C204.893 192.395 201.399 188.446 197.174 185.03C185.987 175.982 172.983 177.95 156.25 177.959C140.411 177.967 124.401 178.186 108.584 177.945C108.79 193.676 108.39 209.69 108.613 225.298C108.697 231.118 107.416 228.896 114.03 235.526C124.582 246.108 134.824 256.606 145.504 267.077C145.04 268.091 141.853 271.031 140.894 271.962C139.406 273.404 137.28 275.225 136.234 276.882L166.693 276.862L166.644 246.494Z" fill="#FD2F70"/>
</g>
<defs>
<clipPath id="clip0_138_10860">
<rect width="320" height="496" fill="white"/>
</clipPath>
</defs>
</svg>
